<?xml version="1.0" encoding="UTF-8"?>
<svg width="215px" height="65px" viewBox="0 0 215 65" version="1.1" xmlns="http://www.w3.org/2000/svg" xmlns:xlink="http://www.w3.org/1999/xlink">
    <!-- Generator: Sketch 57.1 (83088) - https://sketch.com -->
    <title>cc-by-sa</title>
    <desc>Created with Sketch.</desc>
    <g id="decidim-logo" stroke="none" stroke-width="1" fill="none" fill-rule="evenodd">
        <g id="cc-by-sa" fill-rule="nonzero">
            <g id="sa" transform="translate(150.000000, 0.000000)">
                <circle id="Oval" cx="31.944" cy="32.631" r="29.105"></circle>
                <path d="M32.443,0.5 C41.394,0.5 48.974,3.605 55.185,9.815 C61.393,15.987 64.5,23.548 64.5,32.5 C64.5,41.454 61.451,48.957 55.355,55.014 C48.918,61.338 41.279,64.5 32.443,64.5 C23.794,64.5 16.29,61.357 9.929,55.071 C3.644,48.786 0.5,41.264 0.5,32.501 C0.5,23.778 3.644,16.216 9.929,9.816 C16.138,3.605 23.643,0.5 32.443,0.5 Z M32.557,6.272 C25.281,6.272 19.129,8.844 14.1,13.987 C8.88,19.283 6.271,25.454 6.271,32.5 C6.271,39.625 8.861,45.757 14.041,50.9 C19.222,56.082 25.393,58.671 32.555,58.671 C39.678,58.671 45.889,56.062 51.184,50.843 C56.213,45.967 58.727,39.853 58.727,32.5 C58.727,25.187 56.174,19.015 51.071,13.987 C46.004,8.842 39.832,6.272 32.557,6.272 Z M18.271,27.985 C18.88,24.061 20.46,21.023 23.013,18.871 C25.565,16.719 28.669,15.643 32.327,15.643 C37.354,15.643 41.356,17.263 44.327,20.499 C47.298,23.737 48.784,27.89 48.784,32.956 C48.784,37.871 47.241,41.956 44.157,45.212 C41.069,48.468 37.071,50.098 32.155,50.098 C28.536,50.098 25.412,49.013 22.784,46.841 C20.155,44.669 18.575,41.584 18.041,37.584 L26.1,37.584 C26.29,41.47 28.633,43.413 33.129,43.413 C35.375,43.413 37.186,42.441 38.557,40.499 C39.93,38.557 40.616,35.965 40.616,32.728 C40.616,29.337 39.987,26.757 38.731,24.985 C37.473,23.214 35.665,22.328 33.301,22.328 C29.033,22.328 26.634,24.213 26.101,27.984 L28.444,27.984 L22.102,34.327 L15.759,27.984 L18.271,27.985 L18.271,27.985 Z" id="Shape" fill="#1B191E"></path>
            </g>
            <g id="by" transform="translate(75.000000, 0.000000)">
                <circle id="Oval" cx="32.637" cy="32.806" r="28.276"></circle>
                <path d="M32.443,0.5 C41.431,0.5 49.013,3.585 55.185,9.757 C61.393,15.967 64.5,23.548 64.5,32.5 C64.5,41.491 61.451,48.976 55.355,54.956 C48.879,61.319 41.242,64.5 32.443,64.5 C23.794,64.5 16.29,61.356 9.929,55.07 C3.644,48.784 0.5,41.262 0.5,32.5 C0.5,23.739 3.644,16.158 9.929,9.758 C16.101,3.585 23.604,0.5 32.443,0.5 Z M32.557,6.272 C25.281,6.272 19.129,8.825 14.1,13.929 C8.88,19.263 6.271,25.454 6.271,32.501 C6.271,39.587 8.861,45.721 14.041,50.899 C19.222,56.081 25.393,58.67 32.555,58.67 C39.678,58.67 45.889,56.063 51.184,50.842 C56.213,46.004 58.727,39.89 58.727,32.499 C58.727,25.223 56.174,19.034 51.071,13.928 C45.967,8.824 39.795,6.272 32.557,6.272 Z M41.129,24.557 L41.129,37.642 L37.473,37.642 L37.473,53.184 L27.529,53.184 L27.529,37.643 L23.873,37.643 L23.873,24.557 C23.873,23.985 24.073,23.5 24.472,23.1 C24.873,22.701 25.359,22.5 25.929,22.5 L39.073,22.5 C39.606,22.5 40.083,22.7 40.501,23.1 C40.918,23.5 41.129,23.986 41.129,24.557 Z M28.042,16.329 C28.042,13.321 29.527,11.815 32.5,11.815 C35.473,11.815 36.957,13.319 36.957,16.329 C36.957,19.3 35.471,20.786 32.5,20.786 C29.529,20.786 28.042,19.3 28.042,16.329 Z" id="Shape" fill="#1B191E"></path>
            </g>
            <g id="cc">
                <circle id="Oval" cx="32.785" cy="32.501" r="28.836"></circle>
                <path d="M32.441,0.5 C41.392,0.5 49.013,3.625 55.298,9.872 C58.306,12.881 60.593,16.32 62.155,20.186 C63.716,24.053 64.499,28.157 64.499,32.5 C64.499,36.881 63.726,40.986 62.185,44.813 C60.642,48.641 58.365,52.023 55.357,54.956 C52.234,58.041 48.691,60.404 44.728,62.042 C40.767,63.68 36.671,64.499 32.443,64.499 C28.215,64.499 24.167,63.691 20.3,62.07 C16.434,60.452 12.967,58.109 9.9,55.043 C6.833,51.977 4.5,48.519 2.9,44.671 C1.3,40.823 0.5,36.767 0.5,32.5 C0.5,28.271 1.309,24.205 2.928,20.3 C4.547,16.395 6.9,12.9 9.985,9.814 C16.08,3.606 23.565,0.5 32.441,0.5 Z M32.557,6.272 C25.243,6.272 19.09,8.825 14.099,13.929 C11.584,16.482 9.651,19.348 8.299,22.529 C6.945,25.71 6.27,29.034 6.27,32.501 C6.27,35.93 6.945,39.235 8.299,42.414 C9.652,45.597 11.584,48.435 14.099,50.93 C16.613,53.426 19.45,55.329 22.614,56.645 C25.775,57.959 29.09,58.616 32.557,58.616 C35.985,58.616 39.307,57.951 42.53,56.617 C45.749,55.282 48.651,53.36 51.243,50.846 C56.233,45.97 58.727,39.856 58.727,32.502 C58.727,28.959 58.079,25.607 56.784,22.445 C55.491,19.283 53.604,16.465 51.13,13.987 C45.984,8.844 39.795,6.272 32.557,6.272 Z M32.156,27.187 L27.869,29.416 C27.411,28.465 26.85,27.797 26.184,27.416 C25.517,27.036 24.898,26.845 24.326,26.845 C21.47,26.845 20.04,28.73 20.04,32.502 C20.04,34.216 20.402,35.586 21.125,36.615 C21.849,37.644 22.916,38.159 24.326,38.159 C26.193,38.159 27.507,37.244 28.27,35.416 L32.212,37.416 C31.374,38.979 30.212,40.207 28.726,41.102 C27.242,41.998 25.603,42.445 23.812,42.445 C20.955,42.445 18.649,41.57 16.897,39.816 C15.145,38.064 14.269,35.626 14.269,32.503 C14.269,29.455 15.155,27.037 16.926,25.246 C18.697,23.456 20.935,22.5599981 23.641,22.5599981 C27.604,22.558 30.441,24.101 32.156,27.187 Z M50.613,27.187 L46.384,29.416 C45.927,28.465 45.364,27.797 44.698,27.416 C44.03,27.036 43.391,26.845 42.784,26.845 C39.927,26.845 38.497,28.73 38.497,32.502 C38.497,34.216 38.86,35.586 39.583,36.615 C40.306,37.644 41.372,38.159 42.784,38.159 C44.649,38.159 45.964,37.244 46.725,35.416 L50.725,37.416 C49.85,38.979 48.668,40.207 47.184,41.102 C45.698,41.998 44.079,42.445 42.327,42.445 C39.431,42.445 37.118,41.57 35.386,39.816 C33.65,38.064 32.784,35.626 32.784,32.503 C32.784,29.455 33.669,27.037 35.442,25.246 C37.212,23.456 39.45,22.5599981 42.155,22.5599981 C46.117,22.558 48.938,24.101 50.613,27.187 Z" id="Shape" fill="#1B191E"></path>
            </g>
        </g>
    </g>
</svg>