<?xml version="1.0" encoding="UTF-8"?>
<svg width="108px" height="90px" viewBox="0 0 108 90" version="1.1" xmlns="http://www.w3.org/2000/svg" xmlns:xlink="http://www.w3.org/1999/xlink">
    <!-- Generator: Sketch 57.1 (83088) - https://sketch.com -->
    <title>decidim-logo-mobile--inv</title>
    <desc>Created with Sketch.</desc>
    <g id="decidim-logo" stroke="none" stroke-width="1" fill="none" fill-rule="evenodd">
        <g id="decidim-logo-mobile--inv" fill="#FFFFFF" fill-rule="nonzero">
            <path d="M107.709524,73.8095238 C107.706894,82.3061988 100.817311,89.1922289 92.3206359,89.1904762 C83.8239607,89.1887228 76.9372197,82.2998504 76.9380961,73.8031751 C76.9389724,65.3064997 83.8271341,58.4190476 92.3238095,58.4190476 C100.821875,58.421677 107.709524,65.3114578 107.709524,73.8095238 Z" id="Path"></path>
            <rect id="Rectangle" x="36.9285714" y="0" width="30.7761905" height="89.1904762" rx="6.46"></rect>
            <path d="M-1.18047875e-05,36.9 L-1.18047875e-05,36.9 C-0.00505500327,32.8157177 1.61355136,28.8969168 4.49934355,26.0066589 C7.38513573,23.1164009 11.301429,21.4917368 15.3857143,21.4904762 L27.7,21.4904762 C29.3978458,21.4930984 30.7735683,22.8688209 30.7761905,24.5666667 L30.7761905,86.1142857 C30.7761905,86.9301422 30.4520928,87.7125832 29.8751951,88.2894809 C29.2982975,88.8663785 28.5158564,89.1904762 27.7,89.1904762 L15.3857143,89.1904762 C6.89136634,89.1878496 0.00525599759,82.3038705 -1.18047875e-05,73.8095238 L-1.18047875e-05,36.9 Z" id="Path"></path>
        </g>
    </g>
</svg>