<?xml version="1.0" encoding="UTF-8"?>
<svg width="316px" height="90px" viewBox="0 0 316 90" version="1.1" xmlns="http://www.w3.org/2000/svg" xmlns:xlink="http://www.w3.org/1999/xlink">
    <!-- Generator: Sketch 55 (78076) - https://sketchapp.com -->
    <title>decidim-logo</title>
    <desc>Created with Sketch.</desc>
    <g id="decidim-logo" stroke="none" stroke-width="1" fill="none" fill-rule="evenodd">
        <g fill="#FFFFFF" fill-rule="nonzero">
            <path d="M136.928571,47.3904762 L143.914286,47.3904762 C144.106568,47.3836718 144.292968,47.4574047 144.428564,47.5939048 C144.564161,47.7304049 144.636653,47.9172914 144.628571,48.1095238 L144.628571,88.4761905 C144.636746,88.6680201 144.564119,88.8544897 144.428352,88.9902568 C144.292585,89.126024 144.106115,89.1986504 143.914286,89.1904762 L136.928571,89.1904762 C136.736339,89.198558 136.549453,89.1260653 136.412952,88.9904692 C136.276452,88.854873 136.202719,88.6684723 136.209524,88.4761905 L136.209524,86.5047619 C136.209524,86.2666667 136.033333,86.2047619 135.852381,86.3857143 C134.244026,88.544654 131.675958,89.7734799 128.985714,89.6714286 C123.371429,89.6714286 119.195238,86.3380952 117.461905,80.952381 C116.748489,78.6122217 116.406241,76.1747104 116.447619,73.7285714 C116.395506,71.2178559 116.759147,68.7158168 117.52381,66.3238095 C119.252381,61.4238095 123.195238,58.0238095 129.166667,58.0238095 C132.209524,58.0238095 134.361905,59.1571429 135.833333,61.0095238 C136.014286,61.247619 136.190476,61.1285714 136.190476,60.8857143 L136.190476,48.0952381 C136.185992,47.9010868 136.263477,47.7140231 136.403935,47.579909 C136.544392,47.4457949 136.734834,47.3770311 136.928571,47.3904762 Z M136.152381,73.847619 C136.152381,71.2190476 135.733333,69.1285714 134.838095,67.5761905 C134.037497,66.1204795 132.499282,65.2250186 130.838095,65.247619 C129.098588,65.1647724 127.459532,66.0643217 126.595238,67.5761905 C125.642857,69.0666667 125.104762,71.2190476 125.104762,73.9047619 C125.05069,75.9656804 125.479582,78.0106623 126.357143,79.8761905 C127.236114,81.4890235 128.93974,82.4785221 130.77619,82.4428571 C132.628571,82.4428571 134,81.4904762 134.957143,79.8761905 C135.714286,78.4428571 136.152381,76.2952381 136.152381,73.847619 L136.152381,73.847619 Z" id="Shape"></path>
            <path d="M176.938095,75.7571429 C176.931962,75.9555168 176.846198,76.1430622 176.700157,76.2774562 C176.554115,76.4118501 176.360104,76.4817669 176.161905,76.4714286 L157.709524,76.4714286 C157.528571,76.4714286 157.409524,76.5904762 157.471429,76.7714286 C157.583529,77.5907899 157.80453,78.3915154 158.128571,79.152381 C159.080952,81.1809524 160.985714,82.4857143 164.457143,82.4857143 C166.847334,82.5031418 169.095045,81.3508341 170.47619,79.4 C170.771429,78.9809524 171.071429,78.9238095 171.428571,79.2809524 L175.714286,83.5190476 C175.875309,83.6332904 175.975935,83.8143093 175.987962,84.0113763 C175.99999,84.2084434 175.922126,84.400356 175.77619,84.5333333 C173.085714,87.8666667 168.666667,89.7285714 163.652381,89.6714286 C156.842857,89.6714286 152.128571,86.2666667 150.095238,80.8333333 C149.210705,78.5085606 148.785394,76.0343165 148.842857,73.547619 C148.758762,71.401449 149.062018,69.2576839 149.738095,67.2190476 C151.528571,61.6047619 156.366667,57.9619048 162.695238,57.9619048 C170.87619,57.9619048 175.652381,63.2 176.671429,70.6809524 C176.911692,72.3616608 177.000938,74.0605114 176.938095,75.7571429 Z M157.828571,68.7714286 C157.646687,69.396324 157.506693,70.0326576 157.409524,70.6761905 C157.403805,70.757374 157.433571,70.8370483 157.491118,70.8945959 C157.548666,70.9521436 157.62834,70.9819093 157.709524,70.9761905 L168.038095,70.9761905 C168.219048,70.9761905 168.338095,70.8571429 168.280952,70.6761905 C168.157143,70.0190476 168.1,69.4809524 167.980952,69.0047619 C167.261905,66.6238095 165.471429,65.2428571 162.785714,65.2428571 C160.219048,65.2380952 158.604762,66.5 157.828571,68.7714286 L157.828571,68.7714286 Z" id="Shape"></path>
            <path d="M180.952381,80.7142857 C180.232184,78.4361187 179.889563,76.0554684 179.938095,73.6666667 C179.886851,71.3167035 180.229692,68.9747611 180.952381,66.7380952 C182.857143,61.3666667 187.819048,58.0238095 194.209524,58.0238095 C200.77619,58.0238095 205.852381,61.7238095 207.404762,66.4428571 C207.669398,67.1310695 207.829894,67.8549075 207.880952,68.5904762 C207.918628,68.7750945 207.874031,68.9669674 207.758794,69.1160439 C207.643557,69.2651204 207.469108,69.3566171 207.280952,69.3666667 L200.414286,70.3809524 C200.222967,70.4241493 200.022305,70.3839434 199.862398,70.2703726 C199.70249,70.1568019 199.598428,69.9805842 199.57619,69.7857143 L199.4,68.8333333 C198.861905,66.8619048 196.890476,65.252381 194.161905,65.252381 C191.595238,65.252381 189.804762,66.6238095 189.090476,68.8333333 C188.599128,70.4184641 188.377002,72.0747529 188.433333,73.7333333 C188.380626,75.3859006 188.581366,77.0367912 189.028571,78.6285714 C189.632826,80.9462872 191.768527,82.5312232 194.161905,82.4380952 C196.531478,82.5227557 198.662418,81.00512 199.357143,78.7380952 C199.407535,78.6261635 199.428828,78.5033141 199.419048,78.3809524 C199.463416,78.3317648 199.484263,78.2657481 199.47619,78.2 C199.496017,78.0106453 199.595856,77.8388019 199.750536,77.727796 C199.905216,77.6167902 200.099977,77.5772147 200.285714,77.6190476 L207.142857,78.6809524 C207.33016,78.6923245 207.503323,78.7843789 207.617513,78.933283 C207.731704,79.0821872 207.775694,79.2733 207.738095,79.4571429 C207.666965,80.023457 207.547481,80.5826417 207.380952,81.1285714 C205.652381,86.5047619 200.395238,89.6714286 194.185714,89.6714286 C187.804762,89.6714286 182.909524,86.1904762 180.952381,80.7142857 Z" id="Path"></path>
            <path d="M211.152381,50.3190476 C211.152381,47.7127896 213.265171,45.6 215.871429,45.6 C218.477687,45.6 220.590476,47.7127896 220.590476,50.3190476 C220.590476,52.9253057 218.477687,55.0380952 215.871429,55.0380952 C213.265171,55.0380952 211.152381,52.9253057 211.152381,50.3190476 L211.152381,50.3190476 Z M211.571429,88.4761905 L211.571429,59.1571429 C211.563259,58.9640507 211.636388,58.7763727 211.773047,58.6397138 C211.909706,58.5030549 212.097384,58.4299253 212.290476,58.4380952 L219.27619,58.4380952 C219.468472,58.4312909 219.654873,58.5050237 219.790469,58.6415239 C219.926065,58.778024 219.998558,58.9649105 219.990476,59.1571429 L219.990476,88.4761905 C219.99865,88.6680201 219.926024,88.8544897 219.790257,88.9902568 C219.65449,89.126024 219.46802,89.1986504 219.27619,89.1904762 L212.290476,89.1904762 C212.098244,89.198558 211.911357,89.1260653 211.774857,88.9904692 C211.638357,88.854873 211.564624,88.6684723 211.571429,88.4761905 L211.571429,88.4761905 Z" id="Shape"></path>
            <path d="M244.890476,47.3904762 L251.904762,47.3904762 C252.097044,47.3836718 252.283444,47.4574047 252.419041,47.5939048 C252.554637,47.7304049 252.627129,47.9172914 252.619048,48.1095238 L252.619048,88.4761905 C252.627222,88.6680201 252.554595,88.8544897 252.418828,88.9902568 C252.283061,89.126024 252.096592,89.1986504 251.904762,89.1904762 L244.890476,89.1904762 C244.698647,89.1986504 244.512177,89.126024 244.37641,88.9902568 C244.240643,88.8544897 244.168016,88.6680201 244.17619,88.4761905 L244.17619,86.5047619 C244.17619,86.2666667 243.995238,86.2047619 243.819048,86.3857143 C242.210693,88.544654 239.642625,89.7734799 236.952381,89.6714286 C231.338095,89.6714286 227.157143,86.3380952 225.42381,80.952381 C224.712685,78.6117154 224.370488,76.1745661 224.409524,73.7285714 C224.359764,71.218002 224.723348,68.7163465 225.485714,66.3238095 C227.219048,61.4238095 231.157143,58.0238095 237.128571,58.0238095 C240.17619,58.0238095 242.32381,59.1571429 243.795238,61.0095238 C243.971429,61.247619 244.152381,61.1285714 244.152381,60.8857143 L244.152381,48.0952381 C244.147897,47.9010868 244.225382,47.7140231 244.365839,47.579909 C244.506297,47.4457949 244.696739,47.3770311 244.890476,47.3904762 L244.890476,47.3904762 Z M244.114286,73.847619 C244.114286,71.2190476 243.7,69.1285714 242.8,67.5761905 C242.000976,66.1189438 240.461745,65.2228911 238.8,65.247619 C237.061655,65.1643772 235.423808,66.0642728 234.561905,67.5761905 C233.609524,69.0666667 233.071429,71.2190476 233.071429,73.9047619 C233.017357,75.9656804 233.446249,78.0106623 234.32381,79.8761905 C235.202781,81.4890235 236.906407,82.4785221 238.742857,82.4428571 C240.595238,82.4428571 241.966667,81.4904762 242.92381,79.8761905 C243.7,78.4428571 244.114286,76.2952381 244.114286,73.847619 L244.114286,73.847619 Z" id="Shape"></path>
            <path d="M257.314286,50.3190476 C257.259601,48.5982063 258.14644,46.9841552 259.628286,46.1075599 C261.110131,45.2309646 262.951773,45.2309646 264.433619,46.1075599 C265.915464,46.9841552 266.802304,48.5982063 266.747619,50.3190476 C266.802304,52.0398889 265.915464,53.6539401 264.433619,54.5305354 C262.951773,55.4071306 261.110131,55.4071306 259.628286,54.5305354 C258.14644,53.6539401 257.259601,52.0398889 257.314286,50.3190476 Z M257.733333,88.4761905 L257.733333,59.1571429 C257.725252,58.9649105 257.797744,58.778024 257.93334,58.6415239 C258.068937,58.5050237 258.255337,58.4312909 258.447619,58.4380952 L265.433333,58.4380952 C265.626425,58.4299253 265.814103,58.5030549 265.950762,58.6397138 C266.087421,58.7763727 266.160551,58.9640507 266.152381,59.1571429 L266.152381,88.4761905 C266.159185,88.6684723 266.085452,88.854873 265.948952,88.9904692 C265.812452,89.1260653 265.625566,89.198558 265.433333,89.1904762 L258.447619,89.1904762 C258.255789,89.1986504 258.06932,89.126024 257.933553,88.9902568 C257.797786,88.8544897 257.725159,88.6680201 257.733333,88.4761905 L257.733333,88.4761905 Z" id="Shape"></path>
            <path d="M315.238095,68.7095238 L315.238095,88.4761905 C315.2449,88.6684723 315.171167,88.854873 315.034667,88.9904692 C314.898167,89.1260653 314.71128,89.198558 314.519048,89.1904762 L307.533333,89.1904762 C307.341101,89.198558 307.154214,89.1260653 307.017714,88.9904692 C306.881214,88.854873 306.807481,88.6684723 306.814286,88.4761905 L306.814286,70.5619048 C306.814286,67.3380952 305.02381,65.247619 302.219048,65.247619 C299.414286,65.247619 297.5,67.2761905 297.5,70.4857143 L297.5,88.4761905 C297.508174,88.6680201 297.435548,88.8544897 297.299781,88.9902568 C297.164014,89.126024 296.977544,89.1986504 296.785714,89.1904762 L289.857143,89.1904762 C289.665313,89.1986504 289.478844,89.126024 289.343077,88.9902568 C289.207309,88.8544897 289.134683,88.6680201 289.142857,88.4761905 L289.142857,70.5619048 C289.142857,67.3380952 287.238095,65.247619 284.42381,65.247619 C281.857143,65.247619 280.066667,66.8571429 279.704762,69.5333333 L279.704762,88.4761905 C279.712936,88.6680201 279.64031,88.8544897 279.504543,88.9902568 C279.368775,89.126024 279.182306,89.1986504 278.990476,89.1904762 L272.004762,89.1904762 C271.81253,89.198558 271.625643,89.1260653 271.489143,88.9904692 C271.352643,88.854873 271.27891,88.6684723 271.285714,88.4761905 L271.285714,59.2142857 C271.27891,59.0220039 271.352643,58.8356032 271.489143,58.700007 C271.625643,58.5644109 271.81253,58.4919182 272.004762,58.5 L278.990476,58.5 C279.182306,58.4918258 279.368775,58.5644522 279.504543,58.7002194 C279.64031,58.8359865 279.712936,59.0224561 279.704762,59.2142857 L279.704762,61.5428571 C279.704762,61.7857143 279.885714,61.9047619 280.066667,61.6666667 C281.738095,59.1571429 284.352381,58.0238095 287.647619,58.0238095 C291.647619,58.0238095 294.695238,59.8142857 296.304762,62.8571429 C296.428571,63.0952381 296.547619,63.0952381 296.72381,62.8571429 C298.514286,59.5238095 301.680952,58.0238095 305.32381,58.0238095 C311.533333,58.0238095 315.238095,61.9619048 315.238095,68.7095238 Z" id="Path"></path>
            <path d="M-1.89434548e-14,36.9 L-1.89434548e-14,36.9 C-0.00505500327,32.8157177 1.61355136,28.8969168 4.49934355,26.0066589 C7.38513573,23.1164009 11.301429,21.4917368 15.3857143,21.4904762 L27.7,21.4904762 C29.3978458,21.4930984 30.7735683,22.8688209 30.7761905,24.5666667 L30.7761905,86.1142857 C30.7761905,86.9301422 30.4520928,87.7125832 29.8751951,88.2894809 C29.2982975,88.8663785 28.5158564,89.1904762 27.7,89.1904762 L15.3857143,89.1904762 C6.89136634,89.1878496 0.00525599759,82.3038705 -1.89434548e-14,73.8095238 L-1.89434548e-14,36.9 Z" id="Path"></path>
            <rect id="Rectangle" x="36.9285714" y="0" width="30.7761905" height="89.1904762" rx="6.46"></rect>
            <path d="M107.709524,73.8095238 C107.706894,82.3061988 100.817311,89.1922289 92.3206359,89.1904759 C83.8239607,89.1887228 76.9372197,82.2998504 76.9380961,73.8031751 C76.9389724,65.3064997 83.8271341,58.419048 92.3238095,58.4190476 C100.821875,58.421677 107.709524,65.3114578 107.709524,73.8095238 Z" id="Path"></path>
        </g>
    </g>
</svg>