<?xml version="1.0" encoding="utf-8"?>
<svg version="1.1" id="Calque_1" xmlns="http://www.w3.org/2000/svg" xmlns:xlink="http://www.w3.org/1999/xlink" x="0px" y="0px"
 viewBox="0 0 652.4 210" style="enable-background:new 0 0 652.4 210;" xml:space="preserve">
<style type="text/css">
.st0{fill:#003189;}
.st1{fill:#EF3340;}
</style>
<g id="FRANCE_x5F_CONNECT_1_">
<g id="FRANCE_x5F_CONNECT">
<path class="st0" d="M253.8,75.6V81h-20.1v13.7h19.2V100h-19.2v20.7h-8.6V75.6H253.8z"/>
<path class="st0" d="M278.4,120.8l-7.6-11.9h-7.9v11.9h-8.6V75.6h19.6c10.6,0,17.6,6.1,17.6,16.7c0,7-3,11.7-8.6,14.4l8.9,13.9
h-9.6L278.4,120.8z M281.5,92.3c0-5.6-3.4-9-9.6-9h-9v18.2h9C278.1,101.4,281.5,98,281.5,92.3z"/>
<path class="st0" d="M331,120.8l-3.4-7.9H308l-3.4,7.9h-9l17.4-45.2h9.3l17.5,45.2H331z M317.8,87.2l-6.8,18h13.7L317.8,87.2z"/>
<path class="st0" d="M376.2,120.8l-26-33.9v33.9h-8.6V75.6h6.8l26.1,33.9V75.6h8.6v45.2H376.2z"/>
<path class="st0" d="M415.7,121.3c-13.9,0-23.5-10.1-23.5-23.1c0-13,9.6-23.1,23.5-23.1c7.4,0,14.1,3,18.7,8l-6,5.8
c-3.4-3.8-7.8-5.9-12.8-5.9c-9.1,0-14.9,6.7-14.9,15.2c0,8.5,5.8,15.2,14.9,15.2c5,0,9.3-2,12.8-5.9l6,5.8
C429.8,118.3,423.1,121.3,415.7,121.3z"/>
<path class="st0" d="M463.9,82.5h-15.2v-6.8h39v6.8h-15.2v38.3h-8.6L463.9,82.5L463.9,82.5z"/>
</g>
<g id="_x28_EN_x29_">
<path class="st1" d="M297.2,140.6c3.6,0,6.4,2.8,6.4,6.4s-2.8,6.4-6.4,6.4s-6.4-2.8-6.4-6.4S293.5,140.6,297.2,140.6z"/>
<path class="st0" d="M322.5,147.4c-2.8,0-4.9,2.3-4.9,5.5c0,3.2,2.1,5.5,4.9,5.5c1.4,0,2.7-0.6,3.7-1.6l2.1,2.1
c-1.5,1.6-3.5,2.5-5.8,2.5c-4.7,0-8-3.3-8-8.5s3.3-8.5,8-8.5c2.3,0,4.3,0.9,5.8,2.5l-2.1,2.1C325.2,148,323.9,147.4,322.5,147.4z"
/>
<path class="st0" d="M340.5,144.4c4.6,0,7.9,3.3,7.9,8.5c0,5.1-3.3,8.5-7.9,8.5s-7.9-3.3-7.9-8.5
C332.6,147.6,335.9,144.4,340.5,144.4z M340.5,147.4c-2.8,0-4.9,2.3-4.9,5.5c0,3.2,2.1,5.5,4.9,5.5s4.9-2.3,4.9-5.5
C345.4,149.7,343.3,147.4,340.5,147.4z"/>
<path class="st0" d="M365.5,161.3v-9c0-2.5-1.2-4-3.4-4c-2.3,0-3.8,1.6-3.8,4.2v8.8h-3v-16.8h3v1.5c0.9-1.2,2.6-1.9,4.5-1.9
c3.5,0,5.7,2.2,5.7,6v11.2L365.5,161.3L365.5,161.3z"/>
<path class="st0" d="M386.4,161.3v-9c0-2.5-1.2-4-3.4-4c-2.3,0-3.8,1.6-3.8,4.2v8.8h-3v-16.8h3v1.5c0.9-1.2,2.6-1.9,4.5-1.9
c3.5,0,5.7,2.2,5.7,6v11.2L386.4,161.3L386.4,161.3z"/>
<path class="st0" d="M403.8,161.6c-4.6,0-7.9-3.3-7.9-8.5s3.3-8.5,7.9-8.5c2.6,0,4.7,1,6,2.7l-2,2c-0.9-1.1-2.3-1.8-4-1.8
c-2.8,0-4.9,2.3-4.9,5.5c0,3.2,2.1,5.5,4.9,5.5c1.7,0,3.1-0.7,4-1.8l2,2C408.5,160.5,406.4,161.6,403.8,161.6z"/>
<path class="st0" d="M419.6,147.3v8.4c0,1,0.5,1.6,1.6,1.6c0.5,0,1-0.1,1.4-0.2v2.7c-0.6,0.2-1.3,0.3-2.2,0.3
c-2.6,0-3.8-1.3-3.8-3.7v-9.2h-2.4v-2.7h2.4v-4.1h3v4.1h3v2.7h-3V147.3z"/>
<path class="st0" d="M437.3,161.6c-4.6,0-7.9-3.3-7.9-8.5s3.3-8.5,7.9-8.5c2.6,0,4.7,1,6,2.7l-2,2c-0.9-1.1-2.3-1.8-4-1.8
c-2.8,0-4.9,2.3-4.9,5.5c0,3.2,2.1,5.5,4.9,5.5c1.7,0,3.1-0.7,4-1.8l2,2C442,160.5,439.9,161.6,437.3,161.6z"/>
</g>
<g id="HEXAGONE">
<g id="FONDATION">
<g id="FONDATION_1_">
<path class="st0" d="M9.1,205.3L0,150.5L44.7,4.7l130.9,0l44.7,145.8l-9.1,54.7H9.1z"/>
</g>
</g>
<g id="COLORIAGE">
<path class="st1" d="M55.1,70.7h12.2v12.3H55.1V70.7z M55.1,85.9h12.2v40.3H55.1V85.9z M72.6,70.7h12.2v12.3H72.6V70.7z
 M72.6,85.9h12.2v40.3H72.6V85.9z"/>
<polygon class="st1" points="94.6,110.6 94.6,70.7 106.8,70.7 106.8,126.3 94.6,126.3 "/>
<path class="st1" d="M112.1,100.6c0-8.9,7.2-16.3,16.1-16.3c9,0,16.2,7.4,16.2,16.3c0,9-7.2,16.4-16.2,16.4
C119.2,117,112.1,109.6,112.1,100.6z M132.2,100.6c0-3-2.4-5.4-5.4-5.4c-3,0-5.4,2.4-5.4,5.4s2.4,5.4,5.4,5.4
C129.7,105.9,132.2,103.6,132.2,100.6z"/>
</g>
</g>
</g>
</svg>
