<?xml version="1.0" encoding="UTF-8"?>
<svg width="63px" height="73px" viewBox="0 0 63 73" version="1.1" xmlns="http://www.w3.org/2000/svg" xmlns:xlink="http://www.w3.org/1999/xlink">
    <!-- Generator: Sketch 55.2 (78181) - https://sketchapp.com -->
    <title>france-connect-logo-mono</title>
    <desc>Created with Sketch.</desc>
    <g id="France-Connect" stroke="none" stroke-width="1" fill="none" fill-rule="evenodd">
        <g id="france-connect-logo-mono" fill-rule="nonzero">
            <polygon id="Path" fill="#FFFFFF" points="1 19 1 53.9 31.2 71.4 61.5 53.9 61.5 19 31.2 1.5"></polygon>
            <path d="M31.2,0.3 L0,18.4 L0,54.5 L31.3,72.5 L62.6,54.5 L62.6,18.4 L31.2,0.3 Z M61.5,53.9 L31.2,71.4 L1,53.9 L1,19 L31.2,1.5 L61.5,19 L61.5,53.9 Z" id="Shape" fill="#1B1464"></path>
            <polygon id="Path" fill="#034EA2" points="45.6 17.8 31.9 9.9 18.2 17.8 8.9 23.2 8.9 23.2 8.9 49.7 8.9 49.7 31.9 63 54.9 49.7 54.9 49.7 54.9 23.2 54.9 23.2"></polygon>
            <g id="Group" transform="translate(8.000000, 23.000000)">
                <path d="M32.4,16 C32.8,16 33.2,15.9 33.6,16 C33.9,16.1 34.3,16.1 34.3,16.2 C34.2,16.8 33.3,16.9 32.9,17.5 C32.8,17.5 32.8,17.5 32.7,17.5 C32.5,17.6 32.6,18 32.4,18 C32.2,17.9 32,18 31.7,18.1 C32,18.4 32.4,18.6 32.8,18.5 C32.9,18.5 33,18.6 33,18.8 C33,18.8 33.1,18.8 33.1,18.7 C33.2,18.7 33.2,18.7 33.2,18.8 C33.2,18.9 33.2,19 33.2,19.1 C33,19.4 32.6,19.3 32.3,19.3 C32.9,19.4 33.5,19.4 34,19.3 C34.4,19.1 34,18.4 34.3,18.1 C34.2,18.1 34.3,17.9 34.1,17.9 C34.2,17.8 34.4,17.5 34.5,17.5 C34.6,17.5 34.9,17.4 34.9,17.3 C34.9,17.2 34.6,17.1 34.7,16.9 C35.1,16.6 35.5,16.2 35.3,15.7 C35.2,15.5 34.6,15.5 34.3,15.4 C33.9,15.3 33.5,15.4 33.1,15.5 C32.7,15.5 32.4,15.7 32,15.8 C31.5,16 31.1,16.3 30.6,16.6 C31.3,16.3 31.8,16.2 32.4,16 Z" id="Path" fill="#034EA2"></path>
                <path d="M38,20.4 C37.8,20 37.5,19.7 37.2,19.3 C36.9,18.8 36.5,18.4 36.4,17.8 C36.2,17.2 36.4,16.7 36.4,16.1 C36.4,15 36.1,13.9 35.8,12.9 C35.6,12.4 35.5,11.8 35.3,11.3 C35.2,11 35.1,10.7 34.9,10.4 C34.8,10.3 34.8,10 34.9,9.9 C35.2,9.7 35.5,9.4 35.7,9.2 C35.9,8.8 35.7,8.3 35.4,8.1 C34.9,7.9 35,8.6 34.6,8.8 C34.5,8.8 34.5,8.8 34.4,8.8 C34.3,8.6 34.5,8.5 34.6,8.4 C34.6,8.3 34.6,8.2 34.5,8.2 C34.2,8.2 33.9,8.1 33.8,8 C33,7 32,6.5 30.9,6.1 C31.2,6.2 31.5,6.2 31.8,6.2 C32.3,6.3 32.9,6.2 33.3,6 C33.7,5.8 33.7,5.3 33.8,4.9 C33.9,4.8 33.8,4.7 33.8,4.5 C33.8,4.3 33.6,4.1 33.5,3.9 C33.5,3.9 33.4,3.8 33.3,3.6 C32.5,2.7 29.4,0.1 23.6,0.5 C21.1,0.7 18,1.4 14.4,3.2 C14.3,3.2 14.2,3.3 14,3.3 C13.4,3.6 12.6,4.1 12.1,4.7 C11.5,5.4 11,6.2 10.8,7.1 C9.9,7.7 9.3,8.6 8.8,9.5 C8.2,10.7 7.4,11.7 7.4,13 C7.4,13.1 7.4,13.2 7.4,13.2 C7.5,13.6 7.5,13.9 7.6,14.3 C7.8,15.1 8,15.9 8.1,16.7 C8.2,17.1 8.3,17.5 8.4,17.9 C8.6,18.3 8.4,18.8 8.7,19.2 C8.8,19.4 8.8,19.7 9.1,19.8 C9.1,19.9 9.1,20 9.1,20.1 C9.2,20.2 9.2,20.2 9.3,20.2 C9.3,20.3 9.3,20.4 9.3,20.5 C9.9,21.2 10.6,21.8 11,22.6 C11.2,23 10.3,22.8 9.9,22.7 C9.2,22.4 8.7,21.8 8.1,21.3 C8.1,21.3 8,21.4 8,21.4 C8.3,21.9 9.4,22.5 8.8,22.9 C8.5,23.1 8.1,22.7 7.9,23 C7.8,23.1 7.9,23.3 7.9,23.4 C7.5,23.1 7,23.3 6.6,23.1 C6.3,23 6.2,22.5 5.9,22.5 C5,22.3 4.1,22.1 3.1,22.1 C3,22.1 2.9,22.1 2.9,22.1 C2,22 1.1,21.9 0.3,22 L0.3,23 C1.1,22.8 1.9,22.6 2.7,22.6 C2.8,22.6 2.9,22.6 2.9,22.6 C3.1,22.6 3.4,22.5 3.6,22.6 C3.3,22.6 2.9,22.6 2.6,22.7 C1.8,22.8 1,23.1 0.2,23.4 L0.2,24.4 C0.6,24.5 1.1,24.5 1.5,24.6 C2,24.7 2.5,24.8 3,25 C3.7,25.2 4.2,25.5 4.8,25.8 C5.1,26 5.2,26.2 5.5,26.4 C5.9,26.6 6.4,26.6 6.7,26.4 C6.8,26.4 7,26.4 7.1,26.4 C8.2,26.1 9.3,25.8 10,24.9 C10,25 10.1,25 10.1,25 C9.9,25.6 9.9,26.2 9.5,26.8 C9.5,26.9 9.4,27 9.6,27.1 C9.7,27.1 9.7,27.1 9.7,27.1 C9.6,27.1 9.6,27.1 9.6,27.2 C9.6,27.3 9.8,27.2 9.9,27.3 C9.5,27.4 9.2,27.5 9,27.8 C9,27.9 9.1,27.9 9.2,27.9 C9.1,28 8.8,28 8.8,28.1 C8.8,28.1 8.9,28.2 8.9,28.2 C8.8,28.2 8.8,28.2 8.8,28.3 C8.8,28.4 8.8,28.4 8.8,28.5 C8.6,28.5 8.5,28.7 8.4,28.7 C8.7,28.9 8.9,28.7 9.2,28.7 C8.4,29 7.8,29.5 7,29.7 C6.9,29.7 7,29.9 6.9,29.9 C7.1,30 7.3,29.8 7.5,29.8 C7.1,30.1 6.7,30.3 6.3,30.5 L8.7,31.9 C9.7,31.3 10.6,30.6 11.4,29.7 C11.4,29.7 11.5,29.8 11.5,29.8 C11.3,30.5 10.9,31 10.3,31.5 C9.9,31.7 9.6,32.1 9.3,32.2 L11.1,33.2 C11.5,32.9 11.8,32.7 12.3,32.5 C12.4,32.5 12.5,32.6 12.7,32.6 C13.3,32 14,31.3 15,31.5 C15,31.6 15,31.6 15.1,31.6 C15.1,31.6 15.1,31.6 15.1,31.6 C15.1,31.6 15.2,31.6 15.2,31.5 C15.2,31.6 15.2,31.6 15.1,31.6 C14.8,31.8 14.6,32 14.3,32.2 C14.2,32.3 14.3,32.3 14.4,32.3 C14.8,32.1 15,31.9 15.3,31.7 C15.2,31.8 15.2,31.9 15.2,32 C14.3,32.7 13.6,33.4 12.9,34.2 L22.4,39.7 C22.7,39.3 23.1,38.7 23.5,38.2 C25.3,35.6 27.9,32.1 28.7,31.3 C29,31.1 29.3,31.1 29.7,31 C30.9,31 32.2,31.3 33.4,31.4 C33.5,31.4 33.7,31.5 33.8,31.5 C34.2,31.6 34.7,31.5 35.2,31.4 C35.7,31.2 36.3,30.9 36.5,30.3 C36.7,29.8 36.8,29.2 36.5,28.7 C36,28.1 36.9,27.8 37.2,27.4 C37.4,27 37,26.8 37,26.5 C36.9,26.4 36.6,26.4 36.5,26.2 C37,26 37.8,25.5 37.4,24.9 C37.2,24.5 36.8,24 37.2,23.6 C37.7,23.3 38.5,23.3 38.7,22.8 C39.3,21.8 38.5,21.1 38,20.4 Z M34.9,16.8 C34.8,16.9 35.1,17 35.1,17.2 C35,17.3 34.8,17.4 34.7,17.4 C34.6,17.5 34.4,17.7 34.3,17.8 C34.4,17.8 34.3,18 34.5,18 C34.2,18.4 34.7,19.1 34.2,19.2 C33.7,19.4 33.1,19.4 32.5,19.2 C32.8,19.1 33.2,19.3 33.4,19 C33.4,18.9 33.4,18.8 33.4,18.7 C33.4,18.6 33.3,18.6 33.3,18.6 C33.2,18.7 33.2,18.7 33.2,18.7 C33.2,18.6 33,18.4 33,18.4 C32.6,18.5 32.2,18.3 31.9,18 C32.1,17.9 32.3,17.8 32.6,17.9 C32.8,17.9 32.7,17.5 32.9,17.4 C33,17.4 33,17.4 33.1,17.4 C33.5,16.8 34.4,16.6 34.5,16.1 C34.5,16 34.1,16 33.8,15.9 C33.4,15.8 33,15.9 32.6,15.9 C32,16.1 31.5,16.1 31,16.4 C31.4,16.1 31.9,15.8 32.4,15.6 C32.8,15.5 33.1,15.3 33.5,15.3 C33.9,15.2 34.4,15.1 34.7,15.2 C35.1,15.3 35.6,15.3 35.7,15.5 C35.6,16.1 35.3,16.5 34.9,16.8 Z" id="Shape" fill="#FFFFFF"></path>
            </g>
        </g>
    </g>
</svg>