<?xml version="1.0" encoding="UTF-8"?>
<svg width="130px" height="139px" viewBox="0 0 130 139" version="1.1" xmlns="http://www.w3.org/2000/svg" xmlns:xlink="http://www.w3.org/1999/xlink">
    <!-- Generator: Sketch 57.1 (83088) - https://sketch.com -->
    <title>logo</title>
    <desc>Created with Sketch.</desc>
    <defs>
        <polygon id="path-1" points="0 0.423 129.772 0.423 129.772 138.35 0 138.35"></polygon>
    </defs>
    <g id="Page-1" stroke="none" stroke-width="1" fill="none" fill-rule="evenodd">
        <g id="logo" transform="translate(0.000000, -1.000000)">
            <g id="Group" transform="translate(0.138000, 0.826000)">
                <g id="Clipped">
                    <mask id="mask-2" fill="white">
                        <use xlink:href="#path-1"></use>
                    </mask>
                    <g id="c"></g>
                    <path d="M84.862,100.775 C80.827,105.205 74.866,107.417 66.98,107.417 C58.848,107.417 52.54,104.677 48.05,99.193 C43.559,93.709 41.317,83.579 41.317,68.795 C41.317,56.861 43.197,48.109 46.959,42.534 C51.933,35.022 59.091,31.266 68.434,31.266 C72.561,31.266 76.292,32.116 79.629,33.813 C82.964,35.513 85.786,37.938 88.093,41.09 C89.487,42.972 90.823,45.944 92.096,50.007 L128.499,41.911 C123.826,27.839 116.682,17.405 107.069,10.611 C97.45,3.82 84.238,0.422 67.433,0.422 C45.957,0.422 29.348,6.349 17.607,18.197 C5.869,30.047 0,47.005 0,69.069 C0,85.619 3.335,99.195 10.01,109.802 C16.684,120.409 24.617,127.819 33.808,132.032 C42.998,136.245 54.845,138.35 69.345,138.35 C81.297,138.35 91.14,136.623 98.875,133.165 C106.612,129.708 113.088,124.584 118.305,117.79 C123.522,110.996 127.345,102.536 129.772,92.405 L93.643,81.488 C91.823,89.918 88.896,96.348 84.862,100.775" id="Path" fill="#FDDB00" fill-rule="nonzero" mask="url(#mask-2)"></path>
                </g>
            </g>
            <path d="M69.264,139.178 C69.03,139.178 68.799,139.178 68.564,139.173 C68.828,139.173 69.094,139.178 69.358,139.178 L69.264,139.178 M50.887,102.798 C49.909678,101.950345 49.0070225,101.020255 48.189,100.018 C43.698,94.538 41.454,84.405 41.454,69.623 C41.454,57.687 43.334,48.933 47.096,43.359 C52.07,35.85 59.23,32.091 68.574,32.091 C72.698,32.091 76.431,32.943 79.768,34.636 C83.103,36.336 85.925,38.764 88.23,41.916 C89.627,43.798 90.96,46.77 92.235,50.835 L117.105,45.302 C117.491,48.215 117.685,50.434 117.685,51.965 C117.685,55.859 116.272,59 113.445,61.383 C110.619,63.771 106.945,64.965 102.425,64.965 C92.876,64.965 88.228,61.005 88.482,53.096 L88.482,47.256 C88.606,43.114 86.919,39.695 83.415,36.99 C79.912,34.295 75.473,32.943 70.096,32.943 C53.338,32.943 44.959,46.253 44.959,72.873 C44.959,86.469 46.934,96.442 50.887,102.797 M89.235,95.473 L89.235,91.9 C89.107,88.009 90.357,84.866 92.979,82.478 C95.599,80.098 98.97,78.901 103.092,78.901 C108.334,78.901 112.485,80.664 115.543,84.178 C116.963,85.808 118.053,87.705 118.813,89.877 L93.783,82.314 C92.676,87.438 91.16,91.826 89.235,95.473 M117.612,21.408 C114.542,17.494 111.072,14.171 107.205,11.439 C105.305962,10.1009487 103.306721,8.91109895 101.225,7.88 C102.557,7.51 104.086,7.325 105.815,7.325 C109.33,7.325 112.188,8.425 114.388,10.621 C116.582,12.817 117.684,15.675 117.684,19.191 C117.684,19.821 117.66,20.556 117.612,21.408" id="Shape" fill="#0298D3" fill-rule="nonzero"></path>
            <path d="M69.358,139.178 C69.093,139.178 68.828,139.173 68.565,139.173 C50.555,139.029 36.313,133.191 25.836,121.657 C15.22,109.983 9.915,94.034 9.915,73.817 C9.915,52.97 14.666,36.554 24.17,24.56 C33.673,12.57 46.677,6.572 63.186,6.572 C75.189,6.572 85.63,10.969 94.511,19.755 L94.511,17.871 C94.511,12.453 96.748,9.121 101.226,7.881 C103.307689,8.91177768 105.306929,10.1012926 107.206,11.439 C111.073,14.171 114.543,17.494 117.612,21.408 C117.508641,23.0575768 117.368606,24.7046507 117.192,26.348 C116.639,31.498 116.367,35.201 116.367,37.46 C116.367,39.094 116.582,41.514 117.025,44.713 C117.052,44.913 117.077,45.108 117.105,45.302 L92.235,50.835 C90.96,46.77 89.625,43.798 88.23,41.915 C85.925,38.764 83.103,36.335 79.766,34.636 C76.429,32.943 72.698,32.091 68.574,32.091 C59.23,32.091 52.07,35.851 47.096,43.359 C43.334,48.933 41.454,57.687 41.454,69.623 C41.454,84.405 43.698,94.537 48.189,100.018 C49.0070225,101.020255 49.909678,101.950345 50.887,102.798 C50.952,102.901 51.017,103.004 51.083,103.105 C55.162,109.447 61.663,112.62 70.582,112.62 C76.109,112.62 80.629,111.331 84.149,108.757 C87.663,106.183 89.359,102.822 89.235,98.679 L89.235,95.473 C91.16,91.826 92.675,87.438 93.782,82.313 L118.813,89.877 C119.693,92.388 120.133,95.259 120.133,98.49 C120.133,110.423 115.391,120.187 105.91,127.782 C96.445,135.365 84.261,139.16 69.358,139.178" id="Path" fill="#FFFFFF" fill-rule="nonzero"></path>
        </g>
    </g>
</svg>