<svg xmlns="http://www.w3.org/2000/svg" width="25" height="26" viewBox="0 0 25 26"><path d="M17.188.524c-1.594 0-2.97 1.093-3.813 2.75 1.406 1.687 2.25 4 2.25 6.656 0 .906-.094 1.719-.281 2.531.594.344 1.187.594 1.844.594 2.593 0 4.687-2.813 4.687-6.25 0-3.438-2.094-6.25-4.687-6.25zM7.813 3.649c-2.594 0-4.688 2.812-4.688 6.25 0 3.437 2.094 6.25 4.688 6.25s4.687-2.813 4.687-6.25c0-3.438-2.094-6.25-4.687-6.25m14.843 9.875c-1.343 1.593-3.187 2.562-5.281 2.625.844 1.187 1.375 2.625 1.375 4.187V22.4H25V17.21c0-1.625-.969-3.031-2.344-3.719zM2.344 16.649C.969 17.336 0 18.742 0 20.367v5.188h15.625v-5.188c0-1.625-.969-3.03-2.344-3.718-1.406 1.656-3.312 2.625-5.469 2.625-2.156 0-4.062-1-5.468-2.625"/></svg>