<svg width="210" height="63" viewBox="0 0 210 63" fill="none" xmlns="http://www.w3.org/2000/svg">
<path d="M65.0891 53.9344C64.6976 53.9344 64.4314 54.0048 64.2904 54.1457C64.1495 54.2866 64.079 54.5536 64.079 54.9466V55.0801C64.079 55.1098 64.0946 55.1246 64.126 55.1246H65.3593C65.4376 55.1246 65.4767 55.1617 65.4767 55.2358V55.9922C65.4767 56.0664 65.4376 56.1034 65.3593 56.1034H64.126C64.0946 56.1034 64.079 56.1183 64.079 56.1479V60.6752C64.079 60.7494 64.0398 60.7864 63.9615 60.7864H63.0689C62.9906 60.7864 62.9514 60.7494 62.9514 60.6752V56.1479C62.9514 56.1183 62.9357 56.1034 62.9044 56.1034H62.1175C62.0392 56.1034 62 56.0664 62 55.9922V55.2358C62 55.1617 62.0392 55.1246 62.1175 55.1246H62.9044C62.9357 55.1246 62.9514 55.1098 62.9514 55.0801V54.8799C62.9514 54.3904 63.0101 54.0122 63.1276 53.7453C63.2529 53.4783 63.4604 53.2892 63.7501 53.178C64.0398 53.0593 64.447 53 64.9717 53H65.371C65.4493 53 65.4885 53.0371 65.4885 53.1112V53.8231C65.4885 53.8973 65.4493 53.9344 65.371 53.9344H65.0891Z" fill="#FF3333"/>
<path d="M69.3902 55.069C69.6408 55.069 69.8679 55.1172 70.0715 55.2136C70.1263 55.2358 70.1459 55.2803 70.1302 55.3471L69.9423 56.1813C69.9344 56.2481 69.8875 56.2703 69.8013 56.2481C69.6682 56.1961 69.5116 56.1702 69.3315 56.1702L69.1671 56.1813C68.799 56.1961 68.4936 56.3185 68.2509 56.5484C68.016 56.7709 67.8985 57.0638 67.8985 57.4271V60.6752C67.8985 60.7494 67.8594 60.7864 67.7811 60.7864H66.8884C66.8101 60.7864 66.7709 60.7494 66.7709 60.6752V55.2358C66.7709 55.1617 66.8101 55.1246 66.8884 55.1246H67.7811C67.8594 55.1246 67.8985 55.1617 67.8985 55.2358V55.8254C67.8985 55.8476 67.9024 55.8624 67.9103 55.8699C67.9259 55.8699 67.9377 55.8624 67.9455 55.8476C68.2979 55.3285 68.7794 55.069 69.3902 55.069Z" fill="#FF3333"/>
<path d="M75.8771 57.2492C75.9085 57.5532 75.9202 57.8943 75.9124 58.2725C75.9124 58.3467 75.8732 58.3838 75.7949 58.3838H72.048C72.0167 58.3838 72.0011 58.3986 72.0011 58.4283C72.0011 58.6804 72.0246 58.8732 72.0715 59.0067C72.1577 59.3033 72.3299 59.5369 72.5883 59.7075C72.8546 59.8706 73.1874 59.9522 73.5867 59.9522C74.1662 59.9522 74.6125 59.726 74.9257 59.2736C74.9649 59.1995 75.0158 59.1884 75.0784 59.2403L75.7479 59.663C75.8027 59.7075 75.8145 59.7557 75.7832 59.8076C75.5639 60.1413 75.2507 60.4045 74.8435 60.5973C74.4442 60.7901 73.99 60.8865 73.481 60.8865C72.9094 60.8865 72.4278 60.7679 72.0363 60.5306C71.6448 60.2933 71.3511 59.9559 71.1554 59.5184C70.9674 59.0808 70.8735 58.5506 70.8735 57.9277C70.8735 57.3864 70.9165 56.9748 71.0027 56.693C71.1436 56.1813 71.4255 55.7772 71.8484 55.4805C72.2712 55.1839 72.7841 55.0356 73.387 55.0356C74.1779 55.0356 74.7691 55.2247 75.1606 55.6029C75.5522 55.9737 75.791 56.5224 75.8771 57.2492ZM73.387 55.9588C73.0503 55.9588 72.7724 56.0404 72.5531 56.2036C72.3339 56.3593 72.1851 56.5706 72.1068 56.8376C72.052 57.0007 72.0167 57.2084 72.0011 57.4605C72.0011 57.4902 72.0167 57.505 72.048 57.505H74.7378C74.7691 57.505 74.7848 57.4902 74.7848 57.4605C74.7691 57.2158 74.7456 57.0341 74.7143 56.9155C74.636 56.6263 74.4794 56.3964 74.2445 56.2258C74.0174 56.0478 73.7316 55.9588 73.387 55.9588Z" fill="#FF3333"/>
<path d="M82.1744 57.2492C82.2057 57.5532 82.2174 57.8943 82.2096 58.2725C82.2096 58.3467 82.1704 58.3838 82.0921 58.3838H78.3453C78.314 58.3838 78.2983 58.3986 78.2983 58.4283C78.2983 58.6804 78.3218 58.8732 78.3688 59.0067C78.4549 59.3033 78.6272 59.5369 78.8856 59.7075C79.1518 59.8706 79.4846 59.9522 79.884 59.9522C80.4634 59.9522 80.9097 59.726 81.223 59.2736C81.2621 59.1995 81.313 59.1884 81.3757 59.2403L82.0452 59.663C82.1 59.7075 82.1117 59.7557 82.0804 59.8076C81.8611 60.1413 81.5479 60.4045 81.1407 60.5973C80.7414 60.7901 80.2872 60.8865 79.7782 60.8865C79.2066 60.8865 78.7251 60.7679 78.3335 60.5306C77.942 60.2933 77.6484 59.9559 77.4526 59.5184C77.2647 59.0808 77.1707 58.5506 77.1707 57.9277C77.1707 57.3864 77.2138 56.9748 77.2999 56.693C77.4409 56.1813 77.7228 55.7772 78.1456 55.4805C78.5684 55.1839 79.0813 55.0356 79.6843 55.0356C80.4752 55.0356 81.0664 55.2247 81.4579 55.6029C81.8494 55.9737 82.0882 56.5224 82.1744 57.2492ZM79.6843 55.9588C79.3476 55.9588 79.0696 56.0404 78.8503 56.2036C78.6311 56.3593 78.4823 56.5706 78.404 56.8376C78.3492 57.0007 78.314 57.2084 78.2983 57.4605C78.2983 57.4902 78.314 57.505 78.3453 57.505H81.035C81.0664 57.505 81.082 57.4902 81.082 57.4605C81.0664 57.2158 81.0429 57.0341 81.0115 56.9155C80.9332 56.6263 80.7766 56.3964 80.5417 56.2258C80.3146 56.0478 80.0288 55.9588 79.6843 55.9588Z" fill="#FF3333"/>
<path d="M88.4269 60.8754C87.8475 60.8754 87.3424 60.7382 86.9117 60.4638C86.481 60.1821 86.1796 59.7927 86.0073 59.2959C85.8664 58.8954 85.7959 58.4431 85.7959 57.9388C85.7959 57.4123 85.8624 56.9674 85.9956 56.604C86.1678 56.1146 86.4693 55.7327 86.9 55.4583C87.3306 55.1765 87.8435 55.0356 88.4387 55.0356C89.0024 55.0356 89.4918 55.1765 89.9069 55.4583C90.3297 55.7327 90.6312 56.1109 90.8113 56.5929C90.9522 56.9711 91.0227 57.416 91.0227 57.9277C91.0227 58.4468 90.9522 58.9029 90.8113 59.2959C90.639 59.7927 90.3414 60.1821 89.9186 60.4638C89.4958 60.7382 88.9985 60.8754 88.4269 60.8754ZM88.4269 59.9522C88.7401 59.9522 89.0142 59.8706 89.2491 59.7075C89.484 59.5369 89.6524 59.2996 89.7542 58.9956C89.8403 58.7138 89.8834 58.3652 89.8834 57.9499C89.8834 57.5347 89.8442 57.1898 89.7659 56.9155C89.6641 56.6114 89.4958 56.3778 89.2608 56.2147C89.0259 56.0441 88.7401 55.9588 88.4034 55.9588C88.0824 55.9588 87.8044 56.0441 87.5695 56.2147C87.3346 56.3778 87.1662 56.6114 87.0644 56.9155C86.9783 57.175 86.9352 57.5198 86.9352 57.9499C86.9352 58.3801 86.9783 58.7286 87.0644 58.9956C87.1584 59.2996 87.3228 59.5369 87.5577 59.7075C87.8005 59.8706 88.0902 59.9522 88.4269 59.9522Z" fill="#FF3333"/>
<path d="M97.3499 56.5484C97.4987 56.9488 97.5731 57.4234 97.5731 57.9722C97.5731 58.4913 97.5105 58.9399 97.3852 59.3181C97.2207 59.815 96.9506 60.2006 96.5747 60.475C96.1989 60.7419 95.7173 60.8754 95.13 60.8754C94.8638 60.8754 94.6093 60.8272 94.3665 60.7308C94.1316 60.627 93.928 60.4824 93.7558 60.297C93.7401 60.2822 93.7244 60.2785 93.7088 60.2859C93.701 60.2933 93.697 60.3044 93.697 60.3192V62.7998C93.697 62.8739 93.6579 62.911 93.5796 62.911H92.6869C92.6086 62.911 92.5695 62.8739 92.5695 62.7998V55.2358C92.5695 55.1617 92.6086 55.1246 92.6869 55.1246H93.5796C93.6579 55.1246 93.697 55.1617 93.697 55.2358V55.6029C93.697 55.6177 93.701 55.6288 93.7088 55.6363C93.7244 55.6437 93.7401 55.64 93.7558 55.6251C93.928 55.4397 94.1316 55.2951 94.3665 55.1913C94.6015 55.0875 94.8559 55.0356 95.13 55.0356C95.6938 55.0356 96.1597 55.1691 96.5277 55.436C96.9036 55.6956 97.1777 56.0664 97.3499 56.5484ZM96.0579 59.4182C96.3085 59.0623 96.4338 58.5729 96.4338 57.9499C96.4338 57.3789 96.3359 56.9192 96.1401 56.5706C95.9131 56.1628 95.5411 55.9588 95.0243 55.9588C94.5701 55.9588 94.2256 56.1591 93.9907 56.5595C93.8027 56.8784 93.7088 57.3456 93.7088 57.9611C93.7088 58.584 93.8106 59.0586 94.0142 59.3849C94.2412 59.7631 94.574 59.9522 95.0126 59.9522C95.4824 59.9522 95.8308 59.7742 96.0579 59.4182Z" fill="#FF3333"/>
<path d="M103.819 57.2492C103.85 57.5532 103.862 57.8943 103.854 58.2725C103.854 58.3467 103.815 58.3838 103.737 58.3838H99.9899C99.9585 58.3838 99.9429 58.3986 99.9429 58.4283C99.9429 58.6804 99.9664 58.8732 100.013 59.0067C100.099 59.3033 100.272 59.5369 100.53 59.7075C100.796 59.8706 101.129 59.9522 101.529 59.9522C102.108 59.9522 102.554 59.726 102.868 59.2736C102.907 59.1995 102.958 59.1884 103.02 59.2403L103.69 59.663C103.745 59.7075 103.756 59.7557 103.725 59.8076C103.506 60.1413 103.193 60.4045 102.785 60.5973C102.386 60.7901 101.932 60.8865 101.423 60.8865C100.851 60.8865 100.37 60.7679 99.9781 60.5306C99.5866 60.2933 99.293 59.9559 99.0972 59.5184C98.9093 59.0808 98.8153 58.5506 98.8153 57.9277C98.8153 57.3864 98.8584 56.9748 98.9445 56.693C99.0854 56.1813 99.3673 55.7772 99.7902 55.4805C100.213 55.1839 100.726 55.0356 101.329 55.0356C102.12 55.0356 102.711 55.2247 103.102 55.6029C103.494 55.9737 103.733 56.5224 103.819 57.2492ZM101.329 55.9588C100.992 55.9588 100.714 56.0404 100.495 56.2036C100.276 56.3593 100.127 56.5706 100.049 56.8376C99.9938 57.0007 99.9585 57.2084 99.9429 57.4605C99.9429 57.4902 99.9585 57.505 99.9899 57.505H102.68C102.711 57.505 102.727 57.4902 102.727 57.4605C102.711 57.2158 102.687 57.0341 102.656 56.9155C102.578 56.6263 102.421 56.3964 102.186 56.2258C101.959 56.0478 101.673 55.9588 101.329 55.9588Z" fill="#FF3333"/>
<path d="M107.943 55.0467C108.585 55.0467 109.094 55.2247 109.47 55.5806C109.846 55.9292 110.034 56.4038 110.034 57.0044V60.6752C110.034 60.7494 109.995 60.7864 109.917 60.7864H109.024C108.946 60.7864 108.906 60.7494 108.906 60.6752V57.2158C108.906 56.845 108.793 56.5447 108.566 56.3148C108.339 56.0849 108.037 55.97 107.661 55.97C107.293 55.97 106.992 56.0849 106.757 56.3148C106.522 56.5447 106.405 56.8413 106.405 57.2047V60.6752C106.405 60.7494 106.365 60.7864 106.287 60.7864H105.394C105.316 60.7864 105.277 60.7494 105.277 60.6752V55.2358C105.277 55.1617 105.316 55.1246 105.394 55.1246H106.287C106.365 55.1246 106.405 55.1617 106.405 55.2358V55.6363C106.405 55.6511 106.408 55.6622 106.416 55.6696C106.432 55.677 106.444 55.6733 106.452 55.6585C106.788 55.2506 107.285 55.0467 107.943 55.0467Z" fill="#FF3333"/>
<path d="M111.281 57.8498C111.202 57.8498 111.163 57.8128 111.163 57.7386V57.0378C111.163 56.9637 111.202 56.9266 111.281 56.9266H114.91C114.988 56.9266 115.027 56.9637 115.027 57.0378V57.7386C115.027 57.8128 114.988 57.8498 114.91 57.8498H111.281Z" fill="#FF3333"/>
<path d="M118.38 60.8532C117.91 60.8532 117.495 60.7864 117.134 60.6529C116.782 60.5195 116.508 60.3378 116.312 60.1079C116.117 59.8706 116.019 59.611 116.019 59.3293V59.2069C116.019 59.1327 116.058 59.0957 116.136 59.0957H116.982C117.06 59.0957 117.099 59.1327 117.099 59.2069V59.2625C117.099 59.4702 117.217 59.6518 117.452 59.8076C117.694 59.9633 118 60.0412 118.368 60.0412C118.72 60.0412 119.006 59.9707 119.225 59.8298C119.444 59.6815 119.554 59.4961 119.554 59.2736C119.554 59.0586 119.452 58.8991 119.249 58.7953C119.045 58.6841 118.716 58.5692 118.262 58.4505C117.816 58.3318 117.44 58.2132 117.134 58.0945C116.837 57.9685 116.582 57.7942 116.371 57.5717C116.167 57.3419 116.066 57.0489 116.066 56.693C116.066 56.1961 116.269 55.8031 116.676 55.5139C117.091 55.2173 117.64 55.069 118.321 55.069C118.775 55.069 119.174 55.1394 119.519 55.2803C119.871 55.4138 120.141 55.6029 120.329 55.8476C120.517 56.0923 120.611 56.3667 120.611 56.6707V56.7041C120.611 56.7783 120.572 56.8154 120.494 56.8154H119.672C119.593 56.8154 119.554 56.7783 119.554 56.7041V56.6707C119.554 56.4557 119.441 56.2777 119.213 56.1368C118.994 55.9885 118.693 55.9143 118.309 55.9143C117.965 55.9143 117.683 55.9774 117.463 56.1034C117.252 56.2295 117.146 56.4001 117.146 56.6151C117.146 56.8302 117.248 56.9933 117.452 57.1046C117.663 57.2158 118 57.3344 118.462 57.4605C118.916 57.5792 119.292 57.6978 119.589 57.8165C119.895 57.9277 120.153 58.0983 120.365 58.3281C120.576 58.5506 120.682 58.8435 120.682 59.2069C120.682 59.7112 120.47 60.1116 120.047 60.4082C119.632 60.7049 119.076 60.8532 118.38 60.8532Z" fill="#FF3333"/>
<path d="M124.444 60.8754C123.864 60.8754 123.359 60.7382 122.929 60.4638C122.498 60.1821 122.197 59.7927 122.024 59.2959C121.883 58.8954 121.813 58.4431 121.813 57.9388C121.813 57.4123 121.879 56.9674 122.013 56.604C122.185 56.1146 122.486 55.7327 122.917 55.4583C123.348 55.1765 123.86 55.0356 124.456 55.0356C125.019 55.0356 125.509 55.1765 125.924 55.4583C126.347 55.7327 126.648 56.1109 126.828 56.5929C126.969 56.9711 127.04 57.416 127.04 57.9277C127.04 58.4468 126.969 58.9029 126.828 59.2959C126.656 59.7927 126.358 60.1821 125.936 60.4638C125.513 60.7382 125.015 60.8754 124.444 60.8754ZM124.444 59.9522C124.757 59.9522 125.031 59.8706 125.266 59.7075C125.501 59.5369 125.669 59.2996 125.771 58.9956C125.857 58.7138 125.9 58.3652 125.9 57.9499C125.9 57.5347 125.861 57.1898 125.783 56.9155C125.681 56.6114 125.513 56.3778 125.278 56.2147C125.043 56.0441 124.757 55.9588 124.42 55.9588C124.099 55.9588 123.821 56.0441 123.586 56.2147C123.352 56.3778 123.183 56.6114 123.081 56.9155C122.995 57.175 122.952 57.5198 122.952 57.9499C122.952 58.3801 122.995 58.7286 123.081 58.9956C123.175 59.2996 123.34 59.5369 123.575 59.7075C123.817 59.8706 124.107 59.9522 124.444 59.9522Z" fill="#FF3333"/>
<path d="M132.075 55.2358C132.075 55.1617 132.114 55.1246 132.192 55.1246H133.073C133.152 55.1246 133.191 55.1617 133.191 55.2358V60.6752C133.191 60.7494 133.152 60.7864 133.073 60.7864H132.192C132.114 60.7864 132.075 60.7494 132.075 60.6752V60.2636C132.075 60.2488 132.067 60.2414 132.051 60.2414C132.044 60.234 132.032 60.2377 132.016 60.2525C131.703 60.6604 131.221 60.8643 130.571 60.8643C130.188 60.8643 129.831 60.7938 129.503 60.6529C129.182 60.5121 128.923 60.3044 128.727 60.03C128.532 59.7557 128.434 59.422 128.434 59.0289V55.2358C128.434 55.1617 128.473 55.1246 128.551 55.1246H129.432C129.51 55.1246 129.55 55.1617 129.55 55.2358V58.6952C129.55 59.0808 129.655 59.3849 129.867 59.6073C130.086 59.8298 130.391 59.941 130.783 59.941C131.174 59.941 131.488 59.8298 131.723 59.6073C131.957 59.3775 132.075 59.0734 132.075 58.6952V55.2358Z" fill="#FF3333"/>
<path d="M137.455 55.069C137.706 55.069 137.933 55.1172 138.137 55.2136C138.191 55.2358 138.211 55.2803 138.195 55.3471L138.007 56.1813C138 56.2481 137.953 56.2703 137.866 56.2481C137.733 56.1961 137.577 56.1702 137.397 56.1702L137.232 56.1813C136.864 56.1961 136.559 56.3185 136.316 56.5484C136.081 56.7709 135.964 57.0638 135.964 57.4271V60.6752C135.964 60.7494 135.925 60.7864 135.846 60.7864H134.954C134.875 60.7864 134.836 60.7494 134.836 60.6752V55.2358C134.836 55.1617 134.875 55.1246 134.954 55.1246H135.846C135.925 55.1246 135.964 55.1617 135.964 55.2358V55.8254C135.964 55.8476 135.968 55.8624 135.975 55.8699C135.991 55.8699 136.003 55.8624 136.011 55.8476C136.363 55.3285 136.845 55.069 137.455 55.069Z" fill="#FF3333"/>
<path d="M141.499 60.8754C140.904 60.8754 140.395 60.7345 139.972 60.4527C139.549 60.1635 139.26 59.7742 139.103 59.2848C138.986 58.9436 138.927 58.495 138.927 57.9388C138.927 57.4271 138.986 56.9785 139.103 56.5929C139.26 56.1183 139.549 55.7401 139.972 55.4583C140.403 55.1765 140.912 55.0356 141.499 55.0356C142.086 55.0356 142.599 55.1765 143.038 55.4583C143.476 55.7401 143.762 56.096 143.895 56.5261C143.942 56.6448 143.974 56.7671 143.989 56.8932C143.989 56.9525 143.954 56.9896 143.884 57.0044L143.003 57.1268H142.979C142.924 57.1268 142.885 57.0934 142.862 57.0267L142.826 56.8487C142.764 56.5966 142.611 56.3852 142.368 56.2147C142.126 56.0441 141.832 55.9588 141.487 55.9588C141.151 55.9588 140.865 56.0441 140.63 56.2147C140.395 56.3852 140.242 56.6114 140.172 56.8932C140.101 57.1602 140.066 57.5124 140.066 57.9499C140.066 58.3801 140.101 58.7286 140.172 58.9956C140.25 59.2922 140.403 59.5258 140.63 59.6963C140.865 59.8669 141.151 59.9522 141.487 59.9522C141.832 59.9522 142.126 59.8669 142.368 59.6963C142.619 59.5258 142.776 59.3033 142.838 59.0289C142.846 59.0215 142.846 59.0141 142.838 59.0067C142.838 58.9918 142.842 58.9807 142.85 58.9733V58.9288C142.873 58.8695 142.917 58.8472 142.979 58.8621L143.86 58.9956C143.923 59.0104 143.954 59.04 143.954 59.0845V59.129C143.954 59.1958 143.934 59.2773 143.895 59.3737C143.762 59.8261 143.476 60.1895 143.038 60.4638C142.599 60.7382 142.086 60.8754 141.499 60.8754Z" fill="#FF3333"/>
<path d="M150.079 57.2492C150.11 57.5532 150.122 57.8943 150.114 58.2725C150.114 58.3467 150.075 58.3838 149.997 58.3838H146.25C146.219 58.3838 146.203 58.3986 146.203 58.4283C146.203 58.6804 146.226 58.8732 146.273 59.0067C146.359 59.3033 146.532 59.5369 146.79 59.7075C147.056 59.8706 147.389 59.9522 147.789 59.9522C148.368 59.9522 148.814 59.726 149.128 59.2736C149.167 59.1995 149.218 59.1884 149.28 59.2403L149.95 59.663C150.005 59.7075 150.016 59.7557 149.985 59.8076C149.766 60.1413 149.453 60.4045 149.045 60.5973C148.646 60.7901 148.192 60.8865 147.683 60.8865C147.111 60.8865 146.63 60.7679 146.238 60.5306C145.847 60.2933 145.553 59.9559 145.357 59.5184C145.169 59.0808 145.075 58.5506 145.075 57.9277C145.075 57.3864 145.118 56.9748 145.204 56.693C145.345 56.1813 145.627 55.7772 146.05 55.4805C146.473 55.1839 146.986 55.0356 147.589 55.0356C148.38 55.0356 148.971 55.2247 149.362 55.6029C149.754 55.9737 149.993 56.5224 150.079 57.2492ZM147.589 55.9588C147.252 55.9588 146.974 56.0404 146.755 56.2036C146.536 56.3593 146.387 56.5706 146.309 56.8376C146.254 57.0007 146.219 57.2084 146.203 57.4605C146.203 57.4902 146.219 57.505 146.25 57.505H148.94C148.971 57.505 148.987 57.4902 148.987 57.4605C148.971 57.2158 148.947 57.0341 148.916 56.9155C148.838 56.6263 148.681 56.3964 148.446 56.2258C148.219 56.0478 147.933 55.9588 147.589 55.9588Z" fill="#FF3333"/>
<path d="M157.6 53.1112C157.6 53.0371 157.639 53 157.717 53H158.61C158.688 53 158.728 53.0371 158.728 53.1112V60.6752C158.728 60.7494 158.688 60.7864 158.61 60.7864H157.717C157.639 60.7864 157.6 60.7494 157.6 60.6752V60.3081C157.6 60.2933 157.592 60.2822 157.577 60.2747C157.569 60.2673 157.557 60.271 157.541 60.2859C157.369 60.4713 157.165 60.6159 156.931 60.7197C156.696 60.8235 156.441 60.8754 156.167 60.8754C155.603 60.8754 155.133 60.7456 154.758 60.4861C154.39 60.2191 154.119 59.8446 153.947 59.3626C153.798 58.9696 153.724 58.495 153.724 57.9388C153.724 57.4197 153.787 56.9711 153.912 56.5929C154.076 56.1034 154.346 55.7215 154.722 55.4472C155.098 55.1728 155.58 55.0356 156.167 55.0356C156.433 55.0356 156.684 55.0875 156.919 55.1913C157.162 55.2877 157.369 55.4286 157.541 55.614C157.557 55.6288 157.569 55.6326 157.577 55.6251C157.592 55.6177 157.6 55.6066 157.6 55.5918V53.1112ZM157.306 59.3515C157.486 59.04 157.577 58.5729 157.577 57.9499C157.577 57.327 157.479 56.8524 157.283 56.5261C157.056 56.1479 156.723 55.9588 156.285 55.9588C155.815 55.9588 155.466 56.1368 155.239 56.4928C154.989 56.8636 154.863 57.353 154.863 57.9611C154.863 58.5321 154.961 58.9918 155.157 59.3404C155.384 59.7482 155.756 59.9522 156.273 59.9522C156.727 59.9522 157.071 59.7519 157.306 59.3515Z" fill="#FF3333"/>
<path d="M165.22 57.2492C165.251 57.5532 165.263 57.8943 165.255 58.2725C165.255 58.3467 165.216 58.3838 165.138 58.3838H161.391C161.359 58.3838 161.344 58.3986 161.344 58.4283C161.344 58.6804 161.367 58.8732 161.414 59.0067C161.5 59.3033 161.673 59.5369 161.931 59.7075C162.197 59.8706 162.53 59.9522 162.929 59.9522C163.509 59.9522 163.955 59.726 164.268 59.2736C164.308 59.1995 164.358 59.1884 164.421 59.2403L165.091 59.663C165.145 59.7075 165.157 59.7557 165.126 59.8076C164.907 60.1413 164.593 60.4045 164.186 60.5973C163.787 60.7901 163.333 60.8865 162.824 60.8865C162.252 60.8865 161.771 60.7679 161.379 60.5306C160.987 60.2933 160.694 59.9559 160.498 59.5184C160.31 59.0808 160.216 58.5506 160.216 57.9277C160.216 57.3864 160.259 56.9748 160.345 56.693C160.486 56.1813 160.768 55.7772 161.191 55.4805C161.614 55.1839 162.127 55.0356 162.73 55.0356C163.521 55.0356 164.112 55.2247 164.503 55.6029C164.895 55.9737 165.134 56.5224 165.22 57.2492ZM162.73 55.9588C162.393 55.9588 162.115 56.0404 161.896 56.2036C161.677 56.3593 161.528 56.5706 161.449 56.8376C161.395 57.0007 161.359 57.2084 161.344 57.4605C161.344 57.4902 161.359 57.505 161.391 57.505H164.081C164.112 57.505 164.127 57.4902 164.127 57.4605C164.112 57.2158 164.088 57.0341 164.057 56.9155C163.979 56.6263 163.822 56.3964 163.587 56.2258C163.36 56.0478 163.074 55.9588 162.73 55.9588Z" fill="#FF3333"/>
<path d="M172.891 55.0467C173.486 55.0467 173.956 55.2173 174.301 55.5584C174.645 55.8921 174.818 56.3593 174.818 56.96V60.6752C174.818 60.7494 174.778 60.7864 174.7 60.7864H173.819C173.741 60.7864 173.702 60.7494 173.702 60.6752V57.1824C173.702 56.8116 173.592 56.5187 173.373 56.3037C173.161 56.0812 172.876 55.97 172.515 55.97C172.155 55.97 171.862 56.0775 171.635 56.2925C171.407 56.5076 171.294 56.7968 171.294 57.1602V60.6752C171.294 60.7494 171.255 60.7864 171.176 60.7864H170.296C170.217 60.7864 170.178 60.7494 170.178 60.6752V57.1824C170.178 56.8116 170.068 56.5187 169.849 56.3037C169.638 56.0812 169.352 55.97 168.992 55.97C168.632 55.97 168.342 56.0775 168.123 56.2925C167.911 56.5076 167.805 56.7968 167.805 57.1602V60.6752C167.805 60.7494 167.766 60.7864 167.688 60.7864H166.795C166.717 60.7864 166.678 60.7494 166.678 60.6752V55.2358C166.678 55.1617 166.717 55.1246 166.795 55.1246H167.688C167.766 55.1246 167.805 55.1617 167.805 55.2358V55.614C167.805 55.6288 167.809 55.64 167.817 55.6474C167.833 55.6548 167.849 55.6511 167.864 55.6363C168.209 55.2432 168.71 55.0467 169.368 55.0467C169.767 55.0467 170.108 55.1209 170.389 55.2692C170.671 55.4101 170.891 55.6214 171.047 55.9032C171.071 55.9329 171.094 55.9329 171.118 55.9032C171.306 55.614 171.552 55.399 171.858 55.2581C172.171 55.1172 172.515 55.0467 172.891 55.0467Z" fill="#FF3333"/>
<path d="M178.756 60.8754C178.177 60.8754 177.672 60.7382 177.241 60.4638C176.81 60.1821 176.509 59.7927 176.336 59.2959C176.196 58.8954 176.125 58.4431 176.125 57.9388C176.125 57.4123 176.192 56.9674 176.325 56.604C176.497 56.1146 176.798 55.7327 177.229 55.4583C177.66 55.1765 178.173 55.0356 178.768 55.0356C179.332 55.0356 179.821 55.1765 180.236 55.4583C180.659 55.7327 180.96 56.1109 181.14 56.5929C181.281 56.9711 181.352 57.416 181.352 57.9277C181.352 58.4468 181.281 58.9029 181.14 59.2959C180.968 59.7927 180.671 60.1821 180.248 60.4638C179.825 60.7382 179.328 60.8754 178.756 60.8754ZM178.756 59.9522C179.069 59.9522 179.343 59.8706 179.578 59.7075C179.813 59.5369 179.982 59.2996 180.083 58.9956C180.169 58.7138 180.213 58.3652 180.213 57.9499C180.213 57.5347 180.173 57.1898 180.095 56.9155C179.993 56.6114 179.825 56.3778 179.59 56.2147C179.355 56.0441 179.069 55.9588 178.733 55.9588C178.412 55.9588 178.134 56.0441 177.899 56.2147C177.664 56.3778 177.495 56.6114 177.394 56.9155C177.307 57.175 177.264 57.5198 177.264 57.9499C177.264 58.3801 177.307 58.7286 177.394 58.9956C177.488 59.2996 177.652 59.5369 177.887 59.7075C178.13 59.8706 178.419 59.9522 178.756 59.9522Z" fill="#FF3333"/>
<path d="M185.224 60.8754C184.629 60.8754 184.12 60.7345 183.697 60.4527C183.274 60.1635 182.985 59.7742 182.828 59.2848C182.711 58.9436 182.652 58.495 182.652 57.9388C182.652 57.4271 182.711 56.9785 182.828 56.5929C182.985 56.1183 183.274 55.7401 183.697 55.4583C184.128 55.1765 184.637 55.0356 185.224 55.0356C185.812 55.0356 186.324 55.1765 186.763 55.4583C187.201 55.7401 187.487 56.096 187.62 56.5261C187.667 56.6448 187.699 56.7671 187.714 56.8932C187.714 56.9525 187.679 56.9896 187.609 57.0044L186.728 57.1268H186.704C186.649 57.1268 186.61 57.0934 186.587 57.0267L186.552 56.8487C186.489 56.5966 186.336 56.3852 186.093 56.2147C185.851 56.0441 185.557 55.9588 185.213 55.9588C184.876 55.9588 184.59 56.0441 184.355 56.2147C184.12 56.3852 183.967 56.6114 183.897 56.8932C183.827 57.1602 183.791 57.5124 183.791 57.9499C183.791 58.3801 183.827 58.7286 183.897 58.9956C183.975 59.2922 184.128 59.5258 184.355 59.6963C184.59 59.8669 184.876 59.9522 185.213 59.9522C185.557 59.9522 185.851 59.8669 186.093 59.6963C186.344 59.5258 186.501 59.3033 186.563 59.0289C186.571 59.0215 186.571 59.0141 186.563 59.0067C186.563 58.9918 186.567 58.9807 186.575 58.9733V58.9288C186.598 58.8695 186.642 58.8472 186.704 58.8621L187.585 58.9956C187.648 59.0104 187.679 59.04 187.679 59.0845V59.129C187.679 59.1958 187.66 59.2773 187.62 59.3737C187.487 59.8261 187.201 60.1895 186.763 60.4638C186.324 60.7382 185.812 60.8754 185.224 60.8754Z" fill="#FF3333"/>
<path d="M191.63 55.069C191.881 55.069 192.108 55.1172 192.311 55.2136C192.366 55.2358 192.386 55.2803 192.37 55.3471L192.182 56.1813C192.174 56.2481 192.127 56.2703 192.041 56.2481C191.908 56.1961 191.751 56.1702 191.571 56.1702L191.407 56.1813C191.039 56.1961 190.733 56.3185 190.491 56.5484C190.256 56.7709 190.138 57.0638 190.138 57.4271V60.6752C190.138 60.7494 190.099 60.7864 190.021 60.7864H189.128C189.05 60.7864 189.011 60.7494 189.011 60.6752V55.2358C189.011 55.1617 189.05 55.1246 189.128 55.1246H190.021C190.099 55.1246 190.138 55.1617 190.138 55.2358V55.8254C190.138 55.8476 190.142 55.8624 190.15 55.8699C190.166 55.8699 190.177 55.8624 190.185 55.8476C190.538 55.3285 191.019 55.069 191.63 55.069Z" fill="#FF3333"/>
<path d="M195.508 55.0356C195.986 55.0356 196.401 55.1172 196.753 55.2803C197.113 55.436 197.388 55.6585 197.575 55.9477C197.771 56.2295 197.869 56.5521 197.869 56.9155V60.6752C197.869 60.7494 197.83 60.7864 197.752 60.7864H196.859C196.781 60.7864 196.742 60.7494 196.742 60.6752V60.2747C196.742 60.2377 196.722 60.2303 196.683 60.2525C196.479 60.4527 196.229 60.6085 195.931 60.7197C195.641 60.8235 195.316 60.8754 194.956 60.8754C194.377 60.8754 193.895 60.7382 193.511 60.4638C193.136 60.1821 192.948 59.7594 192.948 59.1958C192.948 58.6174 193.159 58.165 193.582 57.8387C194.013 57.505 194.612 57.3382 195.379 57.3382H196.695C196.726 57.3382 196.742 57.3233 196.742 57.2937V56.9933C196.742 56.667 196.64 56.4149 196.436 56.2369C196.24 56.0515 195.939 55.9588 195.532 55.9588C195.203 55.9588 194.933 56.0219 194.721 56.1479C194.518 56.2666 194.392 56.4297 194.345 56.6374C194.322 56.7115 194.275 56.7449 194.204 56.7375L193.253 56.6151C193.175 56.6003 193.14 56.5706 193.147 56.5261C193.21 56.0886 193.457 55.7327 193.887 55.4583C194.318 55.1765 194.858 55.0356 195.508 55.0356ZM195.203 59.9744C195.618 59.9744 195.978 59.8706 196.283 59.663C196.589 59.4553 196.742 59.1921 196.742 58.8732V58.2169C196.742 58.1872 196.726 58.1724 196.695 58.1724H195.59C195.128 58.1724 194.76 58.2577 194.486 58.4283C194.212 58.5988 194.075 58.8361 194.075 59.1402C194.075 59.4145 194.177 59.6222 194.381 59.7631C194.592 59.904 194.866 59.9744 195.203 59.9744Z" fill="#FF3333"/>
<path d="M201.787 60.8754C201.192 60.8754 200.683 60.7345 200.261 60.4527C199.838 60.1635 199.548 59.7742 199.391 59.2848C199.274 58.9436 199.215 58.495 199.215 57.9388C199.215 57.4271 199.274 56.9785 199.391 56.5929C199.548 56.1183 199.838 55.7401 200.261 55.4583C200.691 55.1765 201.2 55.0356 201.787 55.0356C202.375 55.0356 202.888 55.1765 203.326 55.4583C203.765 55.7401 204.05 56.096 204.184 56.5261C204.231 56.6448 204.262 56.7671 204.278 56.8932C204.278 56.9525 204.242 56.9896 204.172 57.0044L203.291 57.1268H203.267C203.213 57.1268 203.173 57.0934 203.15 57.0267L203.115 56.8487C203.052 56.5966 202.899 56.3852 202.657 56.2147C202.414 56.0441 202.12 55.9588 201.776 55.9588C201.439 55.9588 201.153 56.0441 200.918 56.2147C200.683 56.3852 200.531 56.6114 200.46 56.8932C200.39 57.1602 200.355 57.5124 200.355 57.9499C200.355 58.3801 200.39 58.7286 200.46 58.9956C200.539 59.2922 200.691 59.5258 200.918 59.6963C201.153 59.8669 201.439 59.9522 201.776 59.9522C202.12 59.9522 202.414 59.8669 202.657 59.6963C202.907 59.5258 203.064 59.3033 203.126 59.0289C203.134 59.0215 203.134 59.0141 203.126 59.0067C203.126 58.9918 203.13 58.9807 203.138 58.9733V58.9288C203.162 58.8695 203.205 58.8472 203.267 58.8621L204.148 58.9956C204.211 59.0104 204.242 59.04 204.242 59.0845V59.129C204.242 59.1958 204.223 59.2773 204.184 59.3737C204.05 59.8261 203.765 60.1895 203.326 60.4638C202.888 60.7382 202.375 60.8754 201.787 60.8754Z" fill="#FF3333"/>
<path d="M205.306 63C205.251 63 205.224 62.9629 205.224 62.8888V62.2325C205.224 62.1583 205.263 62.1212 205.341 62.1212H205.365C205.678 62.1138 205.925 62.0768 206.105 62.01C206.285 61.9433 206.434 61.8172 206.551 61.6318C206.668 61.4538 206.782 61.1832 206.892 60.8198C206.899 60.8124 206.899 60.8013 206.892 60.7864C206.892 60.7642 206.892 60.7531 206.892 60.7531L204.93 55.2469L204.918 55.2024C204.918 55.1505 204.954 55.1246 205.024 55.1246H205.975C206.046 55.1246 206.093 55.1542 206.116 55.2136L207.444 59.4071C207.451 59.4219 207.463 59.4294 207.479 59.4294C207.495 59.4294 207.506 59.4219 207.514 59.4071L208.83 55.2136C208.853 55.1542 208.9 55.1246 208.971 55.1246H209.898C209.985 55.1246 210.016 55.1654 209.992 55.2469L207.855 61.1758C207.675 61.6874 207.495 62.0656 207.314 62.3103C207.134 62.5625 206.899 62.7405 206.61 62.8443C206.32 62.9481 205.913 63 205.388 63H205.306Z" fill="#FF3333"/>
<path d="M73.2962 25.3675H77.0355C77.0864 25.3657 77.1372 25.3745 77.1846 25.3932C77.2319 25.412 77.2749 25.4403 77.3108 25.4764C77.3467 25.5126 77.3748 25.5557 77.3932 25.6032C77.4116 25.6507 77.42 25.7015 77.4179 25.7524V47.3602C77.42 47.411 77.4116 47.4617 77.3932 47.509C77.3747 47.5564 77.3467 47.5994 77.3107 47.6354C77.2748 47.6713 77.2317 47.6994 77.1844 47.7179C77.137 47.7363 77.0863 47.7447 77.0355 47.7426H73.2962C73.2453 47.7447 73.1945 47.7363 73.147 47.7179C73.0995 47.6994 73.0563 47.6714 73.0202 47.6355C72.984 47.5996 72.9557 47.5566 72.937 47.5092C72.9182 47.4619 72.9095 47.4111 72.9113 47.3602V46.3049C72.9113 46.1775 72.817 46.1443 72.7201 46.2412C72.296 46.8105 71.7398 47.268 71.0994 47.5745C70.4591 47.8809 69.7538 48.0269 69.0445 48C66.0392 48 63.8037 46.2157 62.8759 43.3328C62.494 42.0801 62.3108 40.7754 62.333 39.466C62.3051 38.122 62.4997 36.7827 62.9091 35.5023C63.8343 32.8794 65.9449 31.0594 69.1413 31.0594C70.7701 31.0594 71.9223 31.6661 72.7099 32.6576C72.8068 32.7851 72.9011 32.7214 72.9011 32.5914V25.7448C72.8999 25.6934 72.9094 25.6423 72.9291 25.5948C72.9488 25.5473 72.9782 25.5044 73.0153 25.4689C73.0525 25.4334 73.0967 25.4061 73.1451 25.3886C73.1934 25.3712 73.2449 25.364 73.2962 25.3675ZM72.8807 39.5297C72.8807 38.1227 72.6564 37.0037 72.1772 36.1727C71.9669 35.7903 71.6565 35.4723 71.2793 35.2527C70.9022 35.0332 70.4724 34.9203 70.036 34.9262C69.5794 34.9045 69.1256 35.0094 68.7248 35.2294C68.324 35.4493 67.9918 35.7758 67.7649 36.1727C67.2551 36.9705 66.967 38.1227 66.967 39.5603C66.9381 40.6635 67.1677 41.7581 67.6374 42.7567C67.8682 43.1803 68.2109 43.5323 68.628 43.7746C69.0451 44.0168 69.5206 44.14 70.0029 44.1306C70.9944 44.1306 71.7285 43.6208 72.2409 42.7567C72.6462 41.9895 72.8807 40.8399 72.8807 39.5297Z" fill="#FF3333"/>
<path d="M94.7128 40.5518C94.7112 40.6044 94.6991 40.6561 94.6772 40.7039C94.6553 40.7518 94.6242 40.7948 94.5855 40.8304C94.5468 40.866 94.5013 40.8935 94.4519 40.9113C94.4024 40.9292 94.3499 40.9369 94.2973 40.9342H84.42C84.3231 40.9342 84.2594 40.9979 84.2926 41.0948C84.3526 41.5334 84.4709 41.962 84.6443 42.3693C85.1541 43.4551 86.1737 44.1536 88.0319 44.1536C88.6623 44.1582 89.2844 44.0104 89.8454 43.7228C90.4064 43.4352 90.8896 43.0163 91.2538 42.5018C91.4119 42.2775 91.5725 42.2469 91.7636 42.4381L94.0577 44.7067C94.1003 44.7369 94.1355 44.7762 94.1609 44.8218C94.1862 44.8674 94.201 44.9181 94.2042 44.9702C94.2074 45.0223 94.1989 45.0744 94.1793 45.1228C94.1596 45.1711 94.1294 45.2145 94.0909 45.2496C92.6507 47.0339 90.2852 48.0306 87.6011 48C83.9561 48 81.4326 46.1775 80.3442 43.2691C79.8707 42.0246 79.643 40.7002 79.6738 39.3691C79.6288 38.2203 79.7911 37.0728 80.153 35.9815C81.1114 32.9763 83.7012 31.0263 87.0888 31.0263C91.468 31.0263 94.0246 33.8302 94.5701 37.8346C94.6987 38.7343 94.7465 39.6437 94.7128 40.5518ZM84.4837 36.8125C84.3864 37.147 84.3114 37.4876 84.2594 37.8321C84.2579 37.8536 84.261 37.8751 84.2686 37.8953C84.2761 37.9154 84.2879 37.9338 84.3031 37.949C84.3183 37.9642 84.3366 37.976 84.3568 37.9835C84.377 37.9911 84.3985 37.9942 84.42 37.9927H89.9488C90.0456 37.9927 90.1093 37.9289 90.0788 37.8321C90.0125 37.4803 89.9819 37.1923 89.9182 36.9374C89.5333 35.6629 88.5749 34.9237 87.1372 34.9237C85.7633 34.9211 84.8992 35.5966 84.4837 36.8125Z" fill="#FF3333"/>
<path d="M96.8615 43.2053C96.476 41.9859 96.2926 40.7115 96.3186 39.4328C96.2912 38.1749 96.4747 36.9213 96.8615 35.7241C97.8811 32.8488 100.537 31.0594 103.958 31.0594C107.473 31.0594 110.19 33.04 111.021 35.566C111.163 35.9344 111.249 36.3219 111.276 36.7156C111.286 36.7645 111.285 36.8149 111.274 36.8634C111.263 36.912 111.241 36.9575 111.211 36.997C111.18 37.0364 111.142 37.0688 111.097 37.0919C111.053 37.1151 111.005 37.1285 110.955 37.1311L107.279 37.674C107.229 37.6855 107.176 37.6861 107.125 37.6759C107.074 37.6657 107.026 37.6449 106.984 37.6149C106.941 37.5848 106.906 37.5462 106.88 37.5015C106.853 37.4568 106.837 37.407 106.831 37.3554L106.736 36.8456C106.448 35.7903 105.393 34.9288 103.932 34.9288C102.559 34.9288 101.6 35.6629 101.218 36.8456C100.955 37.6941 100.836 38.5807 100.866 39.4685C100.838 40.3531 100.945 41.2368 101.185 42.0889C101.342 42.6911 101.7 43.2216 102.199 43.5924C102.699 43.9633 103.311 44.1523 103.932 44.1281C104.549 44.1501 105.156 43.968 105.659 43.6099C106.162 43.2518 106.532 42.7377 106.713 42.1475C106.74 42.0876 106.752 42.0218 106.747 41.9563C106.758 41.9433 106.767 41.9279 106.772 41.9112C106.778 41.8945 106.779 41.8769 106.777 41.8595C106.782 41.8094 106.798 41.7609 106.823 41.7174C106.849 41.6738 106.883 41.6361 106.924 41.6067C106.965 41.5773 107.012 41.557 107.061 41.5469C107.11 41.5369 107.161 41.5374 107.21 41.5485L110.881 42.1169C110.931 42.1199 110.979 42.1336 111.023 42.1569C111.067 42.1802 111.105 42.2126 111.135 42.252C111.165 42.2914 111.187 42.3368 111.198 42.3852C111.209 42.4336 111.21 42.4838 111.2 42.5324C111.162 42.8356 111.098 43.1349 111.008 43.4271C110.083 46.3049 107.269 48 103.945 48C100.53 48 97.9092 46.1367 96.8615 43.2053Z" fill="#FF3333"/>
<path d="M113.027 26.9352C113.027 26.2652 113.293 25.6227 113.767 25.149C114.241 24.6752 114.883 24.4091 115.553 24.4091C116.223 24.4091 116.866 24.6752 117.339 25.149C117.813 25.6227 118.079 26.2652 118.079 26.9352C118.079 27.6051 117.813 28.2476 117.339 28.7213C116.866 29.1951 116.223 29.4612 115.553 29.4612C114.883 29.4612 114.241 29.1951 113.767 28.7213C113.293 28.2476 113.027 27.6051 113.027 26.9352ZM113.252 47.3602V31.6661C113.249 31.615 113.258 31.5639 113.276 31.5163C113.295 31.4686 113.323 31.4253 113.359 31.3891C113.396 31.3529 113.439 31.3246 113.487 31.3061C113.534 31.2875 113.585 31.279 113.636 31.2812H117.376C117.427 31.2794 117.477 31.2881 117.525 31.3069C117.572 31.3256 117.615 31.3539 117.651 31.3901C117.687 31.4262 117.715 31.4694 117.733 31.5169C117.752 31.5644 117.76 31.6152 117.758 31.6661V47.3602C117.76 47.411 117.752 47.4617 117.733 47.5091C117.715 47.5564 117.687 47.5994 117.651 47.6354C117.615 47.6713 117.572 47.6994 117.525 47.7179C117.477 47.7363 117.427 47.7447 117.376 47.7426H113.636C113.586 47.7447 113.535 47.7363 113.487 47.7179C113.44 47.6994 113.397 47.6714 113.36 47.6355C113.324 47.5996 113.296 47.5566 113.277 47.5092C113.259 47.4619 113.25 47.4111 113.252 47.3602Z" fill="#FF3333"/>
<path d="M131.087 25.3675H134.842C134.892 25.3657 134.943 25.3745 134.991 25.3932C135.038 25.412 135.081 25.4403 135.117 25.4764C135.153 25.5126 135.181 25.5557 135.199 25.6032C135.218 25.6507 135.226 25.7015 135.224 25.7524V47.3602C135.226 47.411 135.218 47.4617 135.199 47.509C135.181 47.5564 135.153 47.5994 135.117 47.6354C135.081 47.6713 135.038 47.6994 134.99 47.7179C134.943 47.7363 134.892 47.7447 134.842 47.7426H131.087C131.036 47.7447 130.985 47.7363 130.938 47.7179C130.891 47.6994 130.848 47.6713 130.812 47.6354C130.776 47.5994 130.748 47.5564 130.729 47.509C130.711 47.4617 130.702 47.411 130.705 47.3602V46.3049C130.705 46.1775 130.608 46.1443 130.513 46.2412C130.089 46.8105 129.533 47.268 128.893 47.5745C128.252 47.8809 127.547 48.0269 126.838 48C123.832 48 121.594 46.2157 120.667 43.3328C120.286 42.0799 120.103 40.7753 120.124 39.466C120.097 38.1221 120.292 36.783 120.7 35.5023C121.628 32.8794 123.736 31.0594 126.932 31.0594C128.563 31.0594 129.713 31.6661 130.501 32.6576C130.595 32.7851 130.692 32.7214 130.692 32.5914V25.7448C130.691 25.6934 130.7 25.6423 130.72 25.5948C130.739 25.5473 130.769 25.5044 130.806 25.4689C130.843 25.4334 130.887 25.4061 130.936 25.3886C130.984 25.3712 131.036 25.364 131.087 25.3675ZM130.671 39.5297C130.671 38.1227 130.45 37.0037 129.968 36.1727C129.758 35.7899 129.448 35.4716 129.07 35.252C128.693 35.0324 128.263 34.9197 127.827 34.9262C127.37 34.9044 126.917 35.0093 126.516 35.2293C126.116 35.4493 125.784 35.7758 125.558 36.1727C125.048 36.9705 124.76 38.1227 124.76 39.5603C124.731 40.6635 124.961 41.7581 125.431 42.7567C125.661 43.1803 126.004 43.5323 126.421 43.7746C126.838 44.0168 127.314 44.14 127.796 44.1306C128.788 44.1306 129.522 43.6208 130.034 42.7567C130.45 41.9895 130.671 40.8399 130.671 39.5297Z" fill="#FF3333"/>
<path d="M137.737 26.9352C137.726 26.5969 137.784 26.2598 137.906 25.9441C138.028 25.6284 138.212 25.3405 138.448 25.0973C138.683 24.8542 138.965 24.6609 139.277 24.5289C139.588 24.3969 139.923 24.3289 140.262 24.3289C140.6 24.3289 140.935 24.3969 141.247 24.5289C141.559 24.6609 141.841 24.8542 142.076 25.0973C142.312 25.3405 142.496 25.6284 142.618 25.9441C142.74 26.2598 142.797 26.5969 142.787 26.9352C142.797 27.2735 142.74 27.6105 142.618 27.9262C142.496 28.2419 142.312 28.5299 142.076 28.773C141.841 29.0161 141.559 29.2094 141.247 29.3414C140.935 29.4734 140.6 29.5414 140.262 29.5414C139.923 29.5414 139.588 29.4734 139.277 29.3414C138.965 29.2094 138.683 29.0161 138.448 28.773C138.212 28.5299 138.028 28.2419 137.906 27.9262C137.784 27.6105 137.726 27.2735 137.737 26.9352ZM137.961 47.3602V31.6661C137.959 31.6152 137.968 31.5644 137.986 31.5169C138.005 31.4694 138.033 31.4262 138.068 31.3901C138.104 31.3539 138.147 31.3256 138.195 31.3069C138.242 31.2881 138.293 31.2794 138.344 31.2812H142.083C142.134 31.279 142.185 31.2875 142.233 31.3061C142.281 31.3247 142.324 31.3529 142.36 31.3891C142.396 31.4253 142.425 31.4686 142.443 31.5163C142.462 31.5639 142.47 31.615 142.468 31.6661V47.3602C142.47 47.4111 142.461 47.4619 142.442 47.5092C142.424 47.5566 142.395 47.5996 142.359 47.6355C142.323 47.6714 142.28 47.6994 142.232 47.7179C142.185 47.7363 142.134 47.7447 142.083 47.7426H138.344C138.293 47.7447 138.242 47.7363 138.195 47.7179C138.148 47.6994 138.105 47.6713 138.069 47.6354C138.033 47.5994 138.005 47.5564 137.986 47.5091C137.968 47.4617 137.959 47.411 137.961 47.3602Z" fill="#FF3333"/>
<path d="M168.743 36.7793V47.3602C168.745 47.4111 168.736 47.4619 168.717 47.5092C168.699 47.5566 168.67 47.5996 168.634 47.6355C168.598 47.6714 168.555 47.6994 168.507 47.7179C168.46 47.7363 168.409 47.7447 168.358 47.7426H164.619C164.568 47.7447 164.517 47.7363 164.47 47.7179C164.422 47.6994 164.379 47.6714 164.343 47.6355C164.307 47.5996 164.278 47.5566 164.26 47.5092C164.241 47.4619 164.232 47.4111 164.234 47.3602V37.7709C164.234 36.0452 163.275 34.9262 161.774 34.9262C160.273 34.9262 159.248 36.0121 159.248 37.7301V47.3602C159.25 47.411 159.242 47.4617 159.223 47.509C159.205 47.5564 159.177 47.5994 159.141 47.6354C159.105 47.6713 159.062 47.6994 159.015 47.7179C158.967 47.7363 158.916 47.7447 158.866 47.7426H155.157C155.106 47.7447 155.055 47.7363 155.008 47.7179C154.961 47.6994 154.918 47.6713 154.882 47.6354C154.846 47.5994 154.818 47.5564 154.799 47.509C154.781 47.4617 154.772 47.411 154.775 47.3602V37.7709C154.775 36.0452 153.755 34.9262 152.249 34.9262C150.875 34.9262 149.916 35.7878 149.722 37.2203V47.3602C149.725 47.411 149.716 47.4617 149.698 47.509C149.679 47.5564 149.651 47.5994 149.615 47.6354C149.579 47.6713 149.536 47.6994 149.489 47.7179C149.442 47.7363 149.391 47.7447 149.34 47.7426H145.601C145.55 47.7447 145.499 47.7363 145.452 47.7179C145.404 47.6994 145.361 47.6714 145.325 47.6355C145.289 47.5996 145.26 47.5566 145.242 47.5092C145.223 47.4619 145.214 47.4111 145.216 47.3602V31.6967C145.214 31.6458 145.223 31.595 145.242 31.5476C145.26 31.5003 145.289 31.4573 145.325 31.4214C145.361 31.3855 145.404 31.3574 145.452 31.339C145.499 31.3206 145.55 31.3122 145.601 31.3143H149.34C149.391 31.3122 149.442 31.3206 149.489 31.339C149.536 31.3575 149.579 31.3855 149.615 31.4215C149.651 31.4574 149.679 31.5005 149.698 31.5478C149.716 31.5952 149.725 31.6459 149.722 31.6967V32.9431C149.722 33.0731 149.819 33.1368 149.916 33.0094C150.811 31.6661 152.21 31.0594 153.974 31.0594C156.115 31.0594 157.747 32.0178 158.608 33.6466C158.675 33.7741 158.738 33.7741 158.833 33.6466C159.791 31.8623 161.486 31.0594 163.436 31.0594C166.76 31.0594 168.743 33.1674 168.743 36.7793Z" fill="#FF3333"/>
<path d="M6.31044e-06 19.7521C-0.00133349 18.6696 0.210684 17.5974 0.62394 16.5969C1.0372 15.5964 1.64359 14.6871 2.40845 13.921C3.17331 13.155 4.08165 12.5472 5.08154 12.1324C6.08143 11.7176 7.15327 11.5039 8.23579 11.5036H14.8275C15.264 11.5043 15.6824 11.678 15.9911 11.9866C16.2997 12.2953 16.4734 12.7137 16.4741 13.1502V46.0959C16.4741 46.3121 16.4315 46.5263 16.3488 46.726C16.266 46.9258 16.1447 47.1073 15.9918 47.2603C15.8389 47.4132 15.6574 47.5345 15.4576 47.6172C15.2578 47.7 15.0437 47.7425 14.8275 47.7425H8.23579C6.05217 47.7419 3.95815 46.8743 2.41386 45.3305C0.869569 43.7867 0.00135745 41.6929 6.31044e-06 39.5093V19.7521Z" fill="#FF3333"/>
<path d="M34.5949 0H21.4141C20.5046 0 19.7674 0.737229 19.7674 1.64665V46.0959C19.7674 47.0053 20.5046 47.7426 21.4141 47.7426H34.5949C35.5043 47.7426 36.2415 47.0053 36.2415 46.0959V1.64665C36.2415 0.737229 35.5043 0 34.5949 0Z" fill="#FF3333"/>
<path d="M57.6556 39.5093C57.6551 41.1381 57.1716 42.7301 56.2663 44.0842C55.3611 45.4382 54.0746 46.4934 52.5697 47.1164C51.0648 47.7393 49.4089 47.9021 47.8115 47.584C46.2141 47.2659 44.7468 46.4813 43.5953 45.3294C42.4438 44.1775 41.6596 42.7101 41.3421 41.1125C41.0245 39.515 41.1877 37.8592 41.8112 36.3545C42.4346 34.8497 43.4902 33.5636 44.8445 32.6588C46.1988 31.7539 47.791 31.271 49.4198 31.271C51.6043 31.2717 53.6991 32.1399 55.2435 33.6848C56.7879 35.2298 57.6556 37.3248 57.6556 39.5093Z" fill="#FF3333"/>
</svg>
