<svg width="1293" height="200" viewBox="0 0 1293 200" fill="none" xmlns="http://www.w3.org/2000/svg">
<path d="M134.564 189.088C134.401 188.925 134.238 188.599 134.238 188.111V151.792C134.238 151.466 134.401 151.14 134.564 150.814C134.727 150.651 135.052 150.489 135.541 150.489H137.984C138.31 150.489 138.636 150.651 138.962 150.814C139.125 150.977 139.287 151.303 139.287 151.792V188.111C139.287 188.437 139.125 188.762 138.962 189.088C138.799 189.251 138.473 189.414 137.984 189.414H135.541C135.215 189.414 134.89 189.414 134.564 189.088Z" fill="#06BCC1"/>
<path d="M146.617 160.586C146.454 160.423 146.454 160.098 146.454 159.772L147.595 152.117C147.758 150.977 148.246 150.489 149.061 150.489H152.644C152.97 150.489 153.133 150.651 153.296 150.814C153.459 150.977 153.621 151.14 153.621 151.466C153.621 151.792 153.621 152.117 153.459 152.28L150.689 159.609C150.527 159.935 150.364 160.261 150.038 160.586C149.875 160.749 149.549 160.912 149.061 160.912H147.432C146.943 160.912 146.78 160.912 146.617 160.586Z" fill="#06BCC1"/>
<path d="M159.648 186.482C157.367 184.202 156.227 180.945 155.901 177.036V175.244V173.453C156.064 169.544 157.367 166.45 159.648 164.007C161.928 161.726 164.86 160.423 168.607 160.423C172.679 160.423 175.774 161.726 177.891 164.332C180.171 166.938 181.149 170.358 181.149 174.756V175.733C181.149 176.059 180.986 176.384 180.823 176.71C180.66 176.873 180.334 177.036 179.846 177.036H160.788V177.524C160.951 179.967 161.602 181.922 162.906 183.551C164.209 185.179 166 185.994 168.281 185.994C170.072 185.994 171.376 185.668 172.516 185.016C173.656 184.365 174.47 183.713 174.959 182.899C175.285 182.41 175.611 182.248 175.774 182.085C175.936 181.922 176.262 181.922 176.751 181.922H179.194C179.52 181.922 179.846 182.085 180.009 182.248C180.171 182.41 180.334 182.736 180.334 182.899C180.334 183.713 179.846 184.691 178.868 185.831C177.891 186.971 176.425 187.948 174.633 188.762C172.842 189.577 170.724 190.065 168.444 190.065C164.86 190.065 161.928 188.762 159.648 186.482ZM176.262 173.127C176.262 170.358 175.611 168.404 174.145 166.775C172.679 165.147 170.887 164.332 168.607 164.332C166.163 164.332 164.372 165.147 163.068 166.775C161.765 168.404 161.114 170.521 161.114 172.964V173.127H176.262Z" fill="#06BCC1"/>
<path d="M185.221 189.088C185.059 188.925 184.896 188.599 184.896 188.274C184.896 187.948 185.059 187.622 185.221 187.296L194.832 174.919L185.873 163.192C185.547 162.866 185.384 162.541 185.384 162.215C185.384 161.889 185.547 161.563 185.71 161.401C185.873 161.238 186.199 161.075 186.524 161.075H189.131C189.619 161.075 190.108 161.401 190.597 161.889L197.926 171.498L205.256 161.889C205.419 161.564 205.745 161.401 205.908 161.238C206.071 161.075 206.397 161.075 206.722 161.075H209.166C209.491 161.075 209.654 161.238 209.98 161.401C210.143 161.563 210.306 161.889 210.306 162.215C210.306 162.541 210.143 162.866 209.98 163.192L201.021 175.081L210.632 187.296C210.957 187.622 210.957 187.948 210.957 188.274C210.957 188.599 210.794 188.925 210.632 189.088C210.469 189.251 210.143 189.414 209.817 189.414H207.211C206.722 189.414 206.234 189.088 205.745 188.599L197.926 178.502L190.108 188.599C189.945 188.925 189.619 189.088 189.456 189.251C189.294 189.414 188.968 189.414 188.642 189.414H186.036C185.71 189.414 185.384 189.414 185.221 189.088Z" fill="#06BCC1"/>
<path d="M217.147 199.511C216.984 199.349 216.821 199.023 216.821 198.534V162.215C216.821 161.889 216.984 161.564 217.147 161.238C217.31 161.075 217.636 160.912 218.124 160.912H220.405C220.73 160.912 221.056 161.075 221.382 161.238C221.545 161.401 221.708 161.726 221.708 162.215V164.658C223.825 161.889 226.92 160.423 230.829 160.423C234.739 160.423 237.508 161.564 239.462 164.007C241.417 166.45 242.394 169.544 242.557 173.29C242.557 173.616 242.557 174.267 242.557 175.081C242.557 175.896 242.557 176.547 242.557 176.873C242.394 180.619 241.417 183.713 239.462 186.156C237.508 188.599 234.739 189.902 230.829 189.902C226.92 189.902 223.988 188.436 221.871 185.668V198.371C221.871 198.697 221.708 199.023 221.545 199.349C221.382 199.511 221.056 199.674 220.568 199.674H218.124C217.799 199.837 217.473 199.674 217.147 199.511ZM235.39 183.225C236.53 181.596 237.182 179.479 237.345 176.71C237.345 176.384 237.345 175.896 237.345 175.081C237.345 168.078 234.739 164.495 229.526 164.495C226.92 164.495 224.966 165.309 223.825 167.101C222.522 168.73 221.871 170.847 221.708 173.127C221.708 173.453 221.708 174.267 221.708 175.244C221.708 176.221 221.708 177.036 221.708 177.362C221.708 179.642 222.522 181.596 223.825 183.225C225.128 184.853 227.083 185.668 229.526 185.668C232.295 185.668 234.25 184.853 235.39 183.225Z" fill="#06BCC1"/>
<path d="M251.678 186.482C249.398 184.202 248.258 180.945 247.932 177.036V175.244V173.453C248.095 169.544 249.398 166.45 251.678 164.007C253.959 161.726 256.891 160.423 260.637 160.423C264.709 160.423 267.804 161.726 269.921 164.332C272.202 166.938 273.179 170.358 273.179 174.756V175.733C273.179 176.059 273.016 176.384 272.853 176.71C272.69 176.873 272.365 177.036 271.876 177.036H252.818V177.524C252.981 179.967 253.633 181.922 254.936 183.551C256.239 185.179 258.031 185.994 260.311 185.994C262.103 185.994 263.406 185.668 264.546 185.016C265.686 184.365 266.501 183.713 266.989 182.899C267.315 182.41 267.641 182.248 267.804 182.085C267.967 181.922 268.293 181.922 268.781 181.922H271.224C271.55 181.922 271.876 182.085 272.039 182.248C272.202 182.411 272.365 182.736 272.365 182.899C272.365 183.713 271.876 184.691 270.899 185.831C269.921 186.971 268.455 187.948 266.664 188.762C264.872 189.577 262.754 190.065 260.474 190.065C256.891 190.065 253.959 188.762 251.678 186.482ZM268.293 173.127C268.293 170.358 267.641 168.404 266.175 166.775C264.709 165.147 262.917 164.332 260.637 164.332C258.194 164.332 256.402 165.147 255.099 166.775C253.796 168.404 253.144 170.521 253.144 172.964V173.127H268.293ZM258.357 156.026C258.357 155.7 258.519 155.538 258.682 155.375L262.754 150.489C263.08 150.163 263.406 149.837 263.732 149.674C264.058 149.511 264.383 149.511 264.872 149.511H268.455C269.107 149.511 269.433 149.837 269.433 150.489C269.433 150.814 269.27 150.977 269.107 151.14L262.754 156.352C262.429 156.678 262.266 156.84 261.94 156.84C261.614 156.84 261.288 157.003 260.963 157.003H259.334C258.519 156.84 258.357 156.515 258.357 156.026Z" fill="#06BCC1"/>
<path d="M280.346 189.088C280.183 188.925 280.021 188.599 280.021 188.111V162.215C280.021 161.889 280.183 161.564 280.346 161.238C280.509 160.912 280.835 160.912 281.324 160.912H283.604C283.93 160.912 284.256 161.075 284.581 161.238C284.744 161.401 284.907 161.726 284.907 162.215V164.658C286.373 162.215 288.979 160.912 292.563 160.912H294.68C295.006 160.912 295.332 161.075 295.658 161.238C295.82 161.401 295.983 161.726 295.983 162.215V164.169C295.983 164.495 295.82 164.821 295.658 165.147C295.495 165.31 295.169 165.472 294.68 165.472H291.585C289.631 165.472 288.002 166.124 286.862 167.264C285.722 168.404 285.07 170.033 285.07 171.987V188.111C285.07 188.437 284.907 188.762 284.744 189.088C284.418 189.251 284.256 189.414 283.767 189.414H281.324C280.835 189.414 280.509 189.414 280.346 189.088Z" fill="#06BCC1"/>
<path d="M300.381 155.212C300.218 155.049 300.055 154.723 300.055 154.235V151.466C300.055 151.14 300.218 150.814 300.381 150.489C300.544 150.163 300.87 150.163 301.358 150.163H304.616C304.942 150.163 305.268 150.326 305.593 150.489C305.919 150.814 305.919 150.977 305.919 151.466V154.235C305.919 154.56 305.756 154.886 305.593 155.212C305.268 155.375 305.105 155.538 304.616 155.538H301.358C301.032 155.538 300.707 155.538 300.381 155.212ZM300.87 189.088C300.707 188.925 300.544 188.599 300.544 188.111V162.215C300.544 161.889 300.707 161.564 300.87 161.238C301.032 161.075 301.358 160.912 301.847 160.912H304.29C304.616 160.912 304.942 161.075 305.268 161.238C305.43 161.401 305.593 161.726 305.593 162.215V188.111C305.593 188.437 305.43 188.762 305.268 189.088C305.105 189.251 304.779 189.414 304.29 189.414H301.847C301.358 189.414 301.195 189.414 300.87 189.088Z" fill="#06BCC1"/>
<path d="M316.018 186.482C313.738 184.202 312.597 180.945 312.272 177.036V175.244V173.453C312.434 169.544 313.738 166.45 316.018 164.007C318.298 161.726 321.23 160.423 324.977 160.423C329.049 160.423 332.144 161.726 334.261 164.332C336.542 166.938 337.519 170.358 337.519 174.756V175.733C337.519 176.059 337.356 176.384 337.193 176.71C337.03 176.873 336.704 177.036 336.216 177.036H317.158V177.524C317.321 179.967 317.973 181.922 319.276 183.551C320.579 185.179 322.37 185.994 324.651 185.994C326.443 185.994 327.746 185.668 328.886 185.016C330.026 184.365 330.841 183.713 331.329 182.899C331.655 182.41 331.981 182.248 332.144 182.085C332.307 181.922 332.632 181.922 333.121 181.922H335.564C335.89 181.922 336.216 182.085 336.379 182.248C336.542 182.41 336.704 182.736 336.704 182.899C336.704 183.713 336.216 184.691 335.238 185.831C334.261 186.971 332.795 187.948 331.003 188.762C329.212 189.577 327.094 190.065 324.814 190.065C321.23 190.065 318.298 188.762 316.018 186.482ZM332.632 173.127C332.632 170.358 331.981 168.404 330.515 166.775C329.049 165.147 327.257 164.332 324.977 164.332C322.533 164.332 320.742 165.147 319.439 166.775C318.136 168.404 317.484 170.521 317.484 172.964V173.127H332.632Z" fill="#06BCC1"/>
<path d="M344.686 189.088C344.523 188.925 344.36 188.599 344.36 188.111V162.215C344.36 161.889 344.523 161.564 344.686 161.238C344.849 161.075 345.175 160.912 345.663 160.912H347.944C348.27 160.912 348.595 161.075 348.921 161.238C349.084 161.401 349.247 161.726 349.247 162.215V164.658C350.387 163.355 351.69 162.215 352.993 161.564C354.459 160.912 356.251 160.423 358.369 160.423C361.952 160.423 364.558 161.563 366.513 163.844C368.467 166.124 369.445 169.055 369.445 172.801V188.274C369.445 188.599 369.282 188.925 369.119 189.251C368.956 189.414 368.63 189.577 368.142 189.577H365.698C365.373 189.577 365.047 189.414 364.721 189.251C364.558 189.088 364.395 188.762 364.395 188.274V173.127C364.395 170.521 363.744 168.404 362.441 166.938C361.138 165.472 359.346 164.821 356.903 164.821C354.622 164.821 352.668 165.635 351.364 167.101C349.898 168.567 349.247 170.684 349.247 173.29V188.437C349.247 188.762 349.084 189.088 348.921 189.414C348.758 189.577 348.433 189.739 347.944 189.739H345.501C345.175 189.414 344.849 189.414 344.686 189.088Z" fill="#06BCC1"/>
<path d="M379.707 186.645C377.589 184.365 376.286 181.27 376.286 177.362V175.244V173.127C376.449 169.218 377.589 166.124 379.707 163.844C381.824 161.563 384.919 160.586 388.828 160.586C391.434 160.586 393.715 161.075 395.507 162.052C397.298 163.029 398.601 164.169 399.579 165.472C400.393 166.938 400.882 168.241 401.045 169.707C401.045 170.033 401.045 170.358 400.719 170.521C400.393 170.847 400.067 170.847 399.742 170.847H397.298C396.973 170.847 396.647 170.684 396.484 170.521C396.321 170.358 396.158 170.032 395.995 169.544C395.344 167.752 394.366 166.449 393.226 165.798C392.086 164.984 390.62 164.658 388.828 164.658C386.548 164.658 384.756 165.309 383.29 166.775C381.987 168.241 381.173 170.358 381.173 173.29V175.244V177.199C381.336 180.13 381.987 182.248 383.29 183.713C384.593 185.179 386.548 185.831 388.828 185.831C390.62 185.831 392.086 185.505 393.226 184.691C394.366 183.876 395.181 182.736 395.832 180.945C395.995 180.456 396.158 180.13 396.321 179.967C396.484 179.805 396.81 179.642 397.135 179.642H399.579C399.904 179.642 400.23 179.805 400.556 179.967C400.882 180.293 400.882 180.456 400.882 180.782C400.882 182.085 400.393 183.55 399.416 184.853C398.439 186.319 397.135 187.459 395.344 188.436C393.552 189.414 391.272 189.902 388.665 189.902C384.919 190.065 381.824 188.925 379.707 186.645Z" fill="#06BCC1"/>
<path d="M409.84 186.482C407.56 184.202 406.42 180.945 406.094 177.036V175.244V173.453C406.257 169.544 407.56 166.45 409.84 164.007C412.121 161.726 415.053 160.423 418.799 160.423C422.871 160.423 425.966 161.726 428.083 164.332C430.364 166.938 431.341 170.358 431.341 174.756V175.733C431.341 176.059 431.178 176.384 431.015 176.71C430.853 176.873 430.527 177.036 430.038 177.036H410.98V177.524C411.143 179.967 411.795 181.922 413.098 183.551C414.401 185.179 416.193 185.994 418.473 185.994C420.265 185.994 421.568 185.668 422.708 185.016C423.848 184.365 424.663 183.713 425.152 182.899C425.477 182.41 425.803 182.248 425.966 182.085C426.129 181.922 426.455 181.922 426.943 181.922H429.387C429.712 181.922 430.038 182.085 430.201 182.248C430.364 182.41 430.527 182.736 430.527 182.899C430.527 183.713 430.038 184.691 429.061 185.831C428.084 186.971 426.617 187.948 424.826 188.762C423.034 189.577 420.916 190.065 418.636 190.065C415.053 190.065 412.121 188.762 409.84 186.482ZM426.455 173.127C426.455 170.358 425.803 168.404 424.337 166.775C422.871 165.147 421.079 164.332 418.799 164.332C416.356 164.332 414.564 165.147 413.261 166.775C411.958 168.404 411.306 170.521 411.306 172.964V173.127H426.455Z" fill="#06BCC1"/>
<path d="M453.494 186.319C451.539 183.876 450.562 180.619 450.399 176.873V175.244V173.616C450.562 169.87 451.539 166.775 453.494 164.169C455.448 161.564 458.217 160.423 462.127 160.423C465.873 160.423 468.805 161.726 471.085 164.495V151.792C471.085 151.466 471.248 151.14 471.411 150.814C471.574 150.651 471.9 150.489 472.388 150.489H474.832C475.158 150.489 475.483 150.651 475.809 150.814C475.972 150.977 476.135 151.303 476.135 151.792V188.111C476.135 188.436 475.972 188.762 475.809 189.088C475.646 189.251 475.32 189.414 474.832 189.414H472.551C472.226 189.414 471.9 189.251 471.737 189.088C471.574 188.925 471.411 188.599 471.411 188.111V185.831C469.294 188.599 466.362 190.065 462.29 190.065C458.217 190.065 455.286 188.762 453.494 186.319ZM468.805 183.225C470.108 181.596 470.76 179.479 470.923 177.199C470.923 176.873 470.923 176.059 470.923 175.081C470.923 174.104 470.923 173.29 470.923 172.964C470.923 170.684 470.108 168.73 468.805 167.264C467.502 165.635 465.547 164.821 463.104 164.821C460.498 164.821 458.543 165.635 457.403 167.264C456.263 168.893 455.611 171.01 455.448 173.779V175.407C455.448 182.41 458.055 185.994 463.267 185.994C465.71 185.668 467.502 184.853 468.805 183.225Z" fill="#06BCC1"/>
<path d="M486.559 186.482C484.279 184.202 483.139 180.945 482.813 177.036V175.244V173.453C482.976 169.544 484.279 166.45 486.559 164.007C488.84 161.726 491.772 160.423 495.518 160.423C499.59 160.423 502.685 161.726 504.803 164.332C507.083 166.938 508.06 170.358 508.06 174.756V175.733C508.06 176.059 507.898 176.384 507.735 176.71C507.572 176.873 507.246 177.036 506.757 177.036H487.7V177.524C487.863 179.967 488.514 181.922 489.817 183.551C491.12 185.179 492.912 185.994 495.192 185.994C496.984 185.994 498.287 185.668 499.428 185.016C500.568 184.365 501.382 183.713 501.871 182.899C502.197 182.41 502.522 182.248 502.685 182.085C502.848 181.922 503.174 181.922 503.663 181.922H506.106C506.432 181.922 506.757 182.085 506.92 182.248C507.083 182.411 507.246 182.736 507.246 182.899C507.246 183.713 506.757 184.691 505.78 185.831C504.803 186.971 503.337 187.948 501.545 188.762C499.753 189.577 497.636 190.065 495.355 190.065C491.772 190.065 488.84 188.762 486.559 186.482ZM503.174 173.127C503.174 170.358 502.522 168.404 501.056 166.775C499.59 165.147 497.799 164.332 495.518 164.332C493.075 164.332 491.283 165.147 489.98 166.775C488.677 168.404 488.025 170.521 488.025 172.964V173.127H503.174ZM493.238 156.026C493.238 155.7 493.401 155.538 493.564 155.375L497.636 150.489C497.961 150.163 498.287 149.837 498.613 149.674C498.939 149.511 499.265 149.511 499.753 149.511H503.337C503.988 149.511 504.314 149.837 504.314 150.489C504.314 150.814 504.151 150.977 503.988 151.14L497.636 156.352C497.31 156.678 497.147 156.84 496.821 156.84C496.496 156.84 496.17 157.003 495.844 157.003H494.215C493.401 156.84 493.238 156.515 493.238 156.026Z" fill="#06BCC1"/>
<path d="M515.228 189.088C515.065 188.925 514.902 188.599 514.902 188.111V162.215C514.902 161.889 515.065 161.564 515.228 161.238C515.39 161.075 515.716 160.912 516.205 160.912H518.485C518.811 160.912 519.137 161.075 519.3 161.238C519.463 161.401 519.625 161.726 519.625 162.215V164.007C521.58 161.564 524.186 160.261 527.607 160.261C531.679 160.261 534.448 161.889 536.077 165.309C536.891 163.844 538.195 162.541 539.823 161.564C541.452 160.586 543.244 160.261 545.199 160.261C548.131 160.261 550.574 161.238 552.528 163.355C554.483 165.472 555.298 168.404 555.298 172.313V188.111C555.298 188.436 555.135 188.762 554.972 189.088C554.809 189.251 554.483 189.414 553.994 189.414H551.714C551.388 189.414 551.063 189.251 550.737 189.088C550.574 188.925 550.411 188.599 550.411 188.111V172.801C550.411 169.87 549.759 167.752 548.619 166.45C547.479 165.147 545.85 164.495 543.896 164.495C542.104 164.495 540.638 165.147 539.335 166.45C538.032 167.752 537.38 169.87 537.38 172.638V187.948C537.38 188.274 537.217 188.599 537.054 188.925C536.891 189.088 536.566 189.251 536.077 189.251H533.634C533.308 189.251 532.982 189.088 532.656 188.925C532.493 188.762 532.331 188.437 532.331 187.948V172.638C532.331 169.707 531.679 167.752 530.376 166.45C529.073 165.147 527.607 164.495 525.652 164.495C523.861 164.495 522.395 165.147 521.092 166.45C519.788 167.752 519.137 169.87 519.137 172.638V188.111C519.137 188.436 518.974 188.762 518.811 189.088C518.648 189.251 518.322 189.414 517.834 189.414H515.39C515.716 189.414 515.39 189.414 515.228 189.088Z" fill="#06BCC1"/>
<path d="M565.721 186.645C563.604 184.365 562.464 181.433 562.301 177.687V175.407V173.127C562.464 169.381 563.604 166.287 565.884 164.006C568.165 161.726 571.097 160.586 575.169 160.586C579.078 160.586 582.173 161.726 584.453 164.006C586.734 166.287 587.874 169.218 588.037 173.127C588.037 173.941 588.2 174.756 588.2 175.407C588.2 176.221 588.2 177.036 588.037 177.687C587.874 181.433 586.734 184.528 584.616 186.645C582.499 188.925 579.404 190.065 575.332 190.065C571.26 190.065 568.002 188.925 565.721 186.645ZM580.544 183.713C581.847 182.248 582.662 180.13 582.824 177.362C582.824 177.036 582.824 176.384 582.824 175.244C582.824 174.267 582.824 173.453 582.824 173.127C582.662 170.358 582.01 168.241 580.544 166.775C579.241 165.309 577.286 164.495 575.006 164.495C572.726 164.495 570.771 165.309 569.468 166.775C568.165 168.241 567.35 170.358 567.187 173.127V175.244V177.362C567.35 180.13 568.002 182.248 569.468 183.713C570.771 185.179 572.726 185.993 575.006 185.993C577.449 185.831 579.241 185.179 580.544 183.713Z" fill="#06BCC1"/>
<path d="M596.996 186.645C594.878 184.365 593.575 181.27 593.575 177.362V175.244V173.127C593.738 169.218 594.878 166.124 596.996 163.844C599.113 161.563 602.208 160.586 606.118 160.586C608.724 160.586 611.004 161.075 612.796 162.052C614.588 163.029 615.891 164.169 616.868 165.472C617.682 166.938 618.171 168.241 618.334 169.707C618.334 170.033 618.334 170.358 618.008 170.521C617.682 170.847 617.357 170.847 617.031 170.847H614.587C614.262 170.847 613.936 170.684 613.773 170.521C613.61 170.358 613.447 170.032 613.284 169.544C612.633 167.752 611.656 166.449 610.515 165.798C609.375 164.984 607.909 164.658 606.118 164.658C603.837 164.658 602.045 165.309 600.579 166.775C599.276 168.241 598.462 170.358 598.462 173.29V175.244V177.199C598.625 180.13 599.276 182.248 600.579 183.713C601.882 185.179 603.837 185.831 606.118 185.831C607.909 185.831 609.375 185.505 610.515 184.691C611.656 183.876 612.47 182.736 613.122 180.945C613.284 180.456 613.447 180.13 613.61 179.967C613.773 179.805 614.099 179.642 614.425 179.642H616.868C617.194 179.642 617.519 179.805 617.845 179.967C618.171 180.293 618.171 180.456 618.171 180.782C618.171 182.085 617.682 183.55 616.705 184.853C615.728 186.319 614.425 187.459 612.633 188.436C610.841 189.414 608.561 189.902 605.955 189.902C602.371 190.065 599.276 188.925 596.996 186.645Z" fill="#06BCC1"/>
<path d="M625.338 189.088C625.175 188.925 625.012 188.599 625.012 188.111V162.215C625.012 161.889 625.175 161.564 625.338 161.238C625.501 160.912 625.826 160.912 626.315 160.912H628.595C628.921 160.912 629.247 161.075 629.573 161.238C629.735 161.401 629.898 161.726 629.898 162.215V164.658C631.364 162.215 633.971 160.912 637.554 160.912H639.672C639.997 160.912 640.323 161.075 640.649 161.238C640.812 161.401 640.975 161.726 640.975 162.215V164.169C640.975 164.495 640.812 164.821 640.649 165.147C640.486 165.31 640.16 165.472 639.672 165.472H636.414C634.459 165.472 632.83 166.124 631.69 167.264C630.55 168.404 629.898 170.033 629.898 171.987V188.111C629.898 188.437 629.735 188.762 629.573 189.088C629.247 189.251 629.084 189.414 628.595 189.414H626.152C625.826 189.414 625.501 189.414 625.338 189.088Z" fill="#06BCC1"/>
<path d="M647.979 188.925C646.513 188.274 645.21 187.134 644.395 185.994C643.418 184.691 643.092 183.388 643.092 181.759C643.092 179.316 644.07 177.362 646.024 175.896C647.979 174.43 650.748 173.29 654.006 172.801L662.15 171.661V170.033C662.15 166.287 660.032 164.332 655.634 164.332C654.006 164.332 652.54 164.658 651.562 165.309C650.585 165.961 649.771 166.775 649.282 167.752C649.119 168.078 648.956 168.404 648.793 168.567C648.63 168.73 648.468 168.73 648.142 168.73H646.187C645.861 168.73 645.536 168.567 645.373 168.404C645.21 168.241 645.047 167.915 645.047 167.59C645.047 166.775 645.373 165.798 646.187 164.658C647.002 163.518 648.142 162.541 649.771 161.726C651.399 160.912 653.354 160.423 655.797 160.423C659.87 160.423 662.801 161.401 664.593 163.192C666.385 165.147 667.199 167.427 667.199 170.358V188.111C667.199 188.437 667.036 188.762 666.874 189.088C666.711 189.251 666.385 189.414 665.896 189.414H663.453C663.127 189.414 662.801 189.251 662.638 189.088C662.476 188.925 662.313 188.599 662.313 188.111V185.668C661.498 186.808 660.358 187.948 658.729 188.762C657.263 189.577 655.146 189.902 652.865 189.902C651.237 190.065 649.608 189.577 647.979 188.925ZM660.032 183.713C661.498 182.085 662.313 179.805 662.313 176.873V175.407L655.96 176.384C653.354 176.71 651.399 177.362 649.933 178.176C648.63 178.99 647.979 180.13 647.979 181.433C647.979 182.899 648.63 184.039 649.771 184.853C651.074 185.668 652.377 185.994 654.169 185.994C656.449 185.994 658.566 185.179 660.032 183.713Z" fill="#06BCC1"/>
<path d="M677.462 179.805V165.147H673.064C672.738 165.147 672.412 164.984 672.249 164.821C672.086 164.658 671.923 164.332 671.923 164.007V162.215C671.923 161.889 672.086 161.564 672.249 161.238C672.412 161.075 672.738 160.912 673.064 160.912H677.462V151.792C677.462 151.466 677.624 151.14 677.787 150.814C677.95 150.651 678.276 150.489 678.602 150.489H681.045C681.371 150.489 681.697 150.651 682.022 150.814C682.185 150.977 682.348 151.303 682.348 151.792V160.912H689.189C689.515 160.912 689.841 161.075 690.167 161.238C690.329 161.401 690.492 161.726 690.492 162.215V164.007C690.492 164.332 690.329 164.658 690.167 164.821C690.004 164.984 689.678 165.147 689.189 165.147H682.348V179.479C682.348 181.27 682.674 182.736 683.325 183.713C683.977 184.691 684.954 185.179 686.42 185.179H689.841C690.167 185.179 690.492 185.342 690.655 185.505C690.818 185.668 690.981 185.993 690.981 186.482V188.274C690.981 188.599 690.818 188.925 690.655 189.251C690.492 189.414 690.167 189.577 689.841 189.577H686.094C680.231 189.414 677.462 186.319 677.462 179.805Z" fill="#06BCC1"/>
<path d="M696.193 155.212C696.03 155.049 695.867 154.723 695.867 154.235V151.466C695.867 151.14 696.03 150.814 696.193 150.489C696.356 150.163 696.681 150.163 697.17 150.163H700.428C700.754 150.163 701.079 150.326 701.405 150.489C701.731 150.814 701.731 150.977 701.731 151.466V154.235C701.731 154.56 701.568 154.886 701.405 155.212C701.079 155.375 700.916 155.538 700.428 155.538H697.17C696.681 155.538 696.356 155.538 696.193 155.212ZM696.519 189.088C696.356 188.925 696.193 188.599 696.193 188.111V162.215C696.193 161.889 696.356 161.564 696.519 161.238C696.682 161.075 697.007 160.912 697.496 160.912H699.939C700.265 160.912 700.591 161.075 700.916 161.238C701.079 161.401 701.242 161.726 701.242 162.215V188.111C701.242 188.437 701.079 188.762 700.916 189.088C700.754 189.251 700.428 189.414 699.939 189.414H697.496C697.17 189.414 696.844 189.414 696.519 189.088Z" fill="#06BCC1"/>
<path d="M729.096 199.511C728.933 199.349 728.77 199.023 728.77 198.534V185.831C726.653 188.599 723.721 190.065 719.974 190.065C716.065 190.065 713.296 188.762 711.341 186.319C709.387 183.876 708.409 180.782 708.246 177.036V175.244V173.453C708.409 169.707 709.387 166.612 711.341 164.169C713.296 161.726 716.065 160.586 719.974 160.586C723.884 160.586 726.978 162.052 728.933 164.821V162.378C728.933 162.052 729.096 161.726 729.259 161.401C729.422 161.238 729.747 161.075 730.236 161.075H732.516C732.842 161.075 733.168 161.238 733.494 161.401C733.657 161.563 733.82 161.889 733.82 162.378V198.697C733.82 199.023 733.657 199.348 733.494 199.674C733.331 199.837 733.005 200 732.516 200H730.073C729.585 199.837 729.259 199.674 729.096 199.511ZM726.653 183.225C727.956 181.596 728.77 179.642 728.77 177.362C728.77 177.036 728.77 176.221 728.77 175.244C728.77 174.267 728.77 173.453 728.77 173.127C728.607 170.847 727.956 168.73 726.653 167.101C725.35 165.472 723.395 164.658 720.952 164.658C718.345 164.658 716.391 165.472 715.251 167.101C714.11 168.73 713.459 170.847 713.296 173.616V175.244C713.296 182.247 715.902 185.831 721.114 185.831C723.395 185.668 725.35 184.853 726.653 183.225Z" fill="#06BCC1"/>
<path d="M744.57 186.645C742.615 184.365 741.801 181.433 741.801 177.687V162.215C741.801 161.889 741.964 161.564 742.127 161.238C742.29 161.075 742.615 160.912 743.104 160.912H745.547C745.873 160.912 746.199 161.075 746.525 161.238C746.688 161.401 746.85 161.726 746.85 162.215V177.362C746.85 182.899 749.294 185.668 754.017 185.668C756.298 185.668 758.252 184.853 759.555 183.388C760.859 181.922 761.673 179.805 761.673 177.199V162.052C761.673 161.726 761.836 161.401 761.999 161.075C762.162 160.912 762.487 160.749 762.976 160.749H765.419C765.745 160.749 766.071 160.912 766.397 161.075C766.56 161.238 766.722 161.564 766.722 162.052V188.111C766.722 188.437 766.56 188.762 766.397 189.088C766.234 189.251 765.908 189.414 765.419 189.414H763.139C762.813 189.414 762.487 189.251 762.162 189.088C761.999 188.925 761.836 188.599 761.836 188.111V185.668C760.696 187.134 759.555 188.111 758.089 188.925C756.623 189.577 754.832 190.065 752.714 190.065C749.131 190.065 746.362 188.925 744.57 186.645Z" fill="#06BCC1"/>
<path d="M777.147 186.482C774.867 184.202 773.727 180.945 773.401 177.036V175.244V173.453C773.564 169.544 774.867 166.45 777.147 164.007C779.428 161.726 782.36 160.423 786.106 160.423C790.178 160.423 793.273 161.726 795.39 164.332C797.671 166.938 798.648 170.358 798.648 174.756V175.733C798.648 176.059 798.485 176.384 798.322 176.71C798.16 176.873 797.834 177.036 797.345 177.036H778.287V177.524C778.45 179.967 779.102 181.922 780.405 183.551C781.708 185.179 783.5 185.994 785.78 185.994C787.572 185.994 788.875 185.668 790.015 185.016C791.156 184.365 791.97 183.713 792.459 182.899C792.784 182.41 793.11 182.248 793.273 182.085C793.436 181.922 793.762 181.922 794.25 181.922H796.694C797.019 181.922 797.345 182.085 797.508 182.248C797.671 182.41 797.834 182.736 797.834 182.899C797.834 183.713 797.345 184.691 796.368 185.831C795.39 186.971 793.924 187.948 792.133 188.762C790.341 189.577 788.224 190.065 785.943 190.065C782.36 190.065 779.428 188.762 777.147 186.482ZM793.762 173.127C793.762 170.358 793.11 168.404 791.644 166.775C790.178 165.147 788.386 164.332 786.106 164.332C783.663 164.332 781.871 165.147 780.568 166.775C779.265 168.404 778.613 170.521 778.613 172.964V173.127H793.762Z" fill="#06BCC1"/>
<path d="M52.6322 10.5863C23.1499 9.60912 -0.794249 33.7133 0.0201792 63.1922C0.834607 89.9023 22.4984 111.564 49.2116 112.378C78.6939 113.355 102.638 89.2508 101.661 59.9349C100.846 33.0619 79.1825 11.4007 52.6322 10.5863ZM73.3187 86.8078H51.4921C38.6241 86.8078 26.7334 76.3844 25.5932 63.5179C24.2901 48.0456 36.9952 35.0163 52.4694 35.9935C65.0115 36.645 75.4362 46.7427 76.4136 59.2835C77.0651 67.101 74.1331 74.2672 69.0837 79.316L74.2961 84.5278C74.9476 85.505 74.4589 86.8078 73.3187 86.8078Z" fill="#043054"/>
<path d="M156.716 100C151.341 100 146.617 98.8599 142.708 96.5798C138.799 94.2997 135.704 91.2052 133.586 87.1336V126.059C133.586 126.873 132.935 127.524 132.12 127.524H125.768C118.112 127.524 111.76 121.336 111.76 113.518V29.1531C111.76 28.3388 112.411 27.6873 113.226 27.6873H121.37C126.582 27.6873 130.654 31.9219 130.654 36.9707V39.088C133.26 35.0163 136.518 31.9219 140.427 29.6417C144.337 27.3616 149.06 26.2215 154.436 26.2215C159.159 26.2215 163.557 27.1987 167.629 28.9902C171.702 30.9446 175.122 33.5505 178.054 36.8078C180.986 40.0652 183.266 43.974 184.895 48.3714C186.524 52.7688 187.338 57.6547 187.338 62.7036C187.338 68.0782 186.524 72.9642 185.058 77.3616C183.592 81.9219 181.475 85.8307 178.706 89.088C175.937 92.3453 172.842 94.9512 168.932 96.9056C165.023 98.86 161.114 100 156.716 100ZM149.386 81.759C151.667 81.759 153.947 81.2704 155.739 80.1303C157.693 79.1531 159.322 77.6873 160.788 76.0587C162.254 74.2672 163.394 72.3127 164.046 70.0326C164.86 67.7525 165.186 65.3094 165.186 62.8664C165.186 60.2606 164.697 57.8176 163.883 55.7004C163.069 53.4202 161.928 51.6287 160.3 50C158.834 48.3714 157.042 47.0684 154.924 46.2541C152.807 45.2769 150.526 44.9512 148.083 44.9512C145.151 44.9512 142.219 45.7655 139.45 47.557C136.681 49.3486 134.564 51.6286 133.098 54.7231V69.3811C134.564 72.9642 136.681 76.0587 139.613 78.5017C142.545 80.9447 145.966 81.759 149.386 81.759Z" fill="#043054"/>
<path d="M232.295 100C226.268 100 221.056 99.0228 216.332 97.0684C211.609 95.114 207.537 92.5082 204.279 89.088C201.021 85.8306 198.415 81.9218 196.786 77.5244C195.157 73.127 194.18 68.5668 194.18 63.8437C194.18 58.6319 194.994 53.9088 196.786 49.3485C198.578 44.7882 201.021 40.8795 204.279 37.4593C207.537 34.0391 211.446 31.2703 216.332 29.3159C221.056 27.3615 226.431 26.3844 232.458 26.3844C238.485 26.3844 243.86 27.3615 248.584 29.3159C253.307 31.2703 257.217 34.0391 260.474 37.2964C263.732 40.7166 266.175 44.6254 267.804 49.0228C269.433 53.4202 270.248 58.1433 270.248 63.0293C270.248 64.3323 270.247 65.4723 270.085 66.7752C270.085 67.4267 269.922 68.0782 269.922 68.7297C269.759 69.3811 269.27 69.8697 268.456 69.8697H217.147C217.798 78.3388 222.685 83.2247 231.969 84.3648C232.295 84.3648 232.621 84.3648 233.11 84.3648C236.204 84.3648 239.299 83.5505 242.231 82.0847C244.023 81.1075 245.489 79.9674 246.629 78.5016C247.769 77.0358 249.724 76.2215 251.516 76.7101L264.872 80.4561C265.687 80.6189 266.175 81.7589 265.687 82.4104C262.918 87.2964 258.846 91.3681 253.47 94.4625C247.444 98.2085 240.439 100 232.295 100ZM247.281 56.5147C246.792 51.9544 245.163 48.3713 242.394 45.7655C239.625 43.1596 236.042 41.8567 231.969 41.8567C227.734 41.8567 224.151 43.1596 221.545 45.9283C218.776 48.5342 217.147 52.1173 216.821 56.5147H247.281Z" fill="#043054"/>
<path d="M346.967 98.697H340.614C332.958 98.697 326.606 92.5081 326.606 84.6905V58.7947C326.606 54.0716 325.791 50.6514 324 48.5342C322.208 46.4169 319.928 45.4397 316.996 45.4397C315.53 45.4397 313.901 45.7655 312.435 46.4169C310.969 47.0684 309.34 47.8827 308.037 49.0228C306.571 50.1629 305.268 51.4658 304.128 53.0945C302.987 54.5603 302.173 56.3518 301.522 58.1433V97.3941C301.522 98.2084 300.87 98.8599 300.056 98.8599H293.703C286.047 98.8599 279.695 92.671 279.695 84.8534V29.1531C279.695 28.3387 280.346 27.6873 281.161 27.6873H289.957C295.169 27.6873 299.241 31.9218 299.241 36.9707V39.5765C301.847 35.342 305.594 32.0847 310.317 29.8045C315.041 27.5244 320.579 26.3844 326.769 26.3844C331.33 26.3844 335.076 27.1987 337.845 28.8274C340.614 30.456 342.732 32.7362 344.36 35.342C345.826 37.9479 346.967 40.8795 347.455 44.1368C347.944 47.2313 348.27 50.3257 348.27 53.2573V97.2313C348.433 98.0456 347.781 98.697 346.967 98.697Z" fill="#043054"/>
<path d="M390.783 100C384.756 100 378.729 99.0228 372.865 97.0684C367.49 95.2769 362.766 92.6711 358.857 89.4137C358.368 88.9251 358.206 88.2736 358.531 87.6222L363.255 79.6418C364.558 77.3616 367.49 76.7102 369.77 78.0131C372.702 79.8046 375.634 81.2704 378.403 82.2476C382.476 83.8762 386.385 84.6906 390.294 84.6906C393.063 84.6906 395.181 84.2019 396.81 83.2247C398.276 82.2475 399.09 80.7818 399.09 78.8274C399.09 76.873 398.113 75.4071 396.158 74.2671C394.203 73.127 390.783 71.987 385.896 70.6841C381.173 69.3812 377.1 68.0782 373.843 66.7753C370.585 65.4723 367.816 64.1694 365.861 62.5408C363.744 61.075 362.278 59.2834 361.463 57.329C360.486 55.3746 360.16 52.9316 360.16 50.3257C360.16 46.7427 360.812 43.4853 362.278 40.3909C363.744 37.4593 365.698 34.8535 368.305 32.8991C370.748 30.7818 373.843 29.1531 377.263 28.0131C380.684 26.873 384.43 26.2215 388.502 26.2215C393.878 26.2215 398.764 26.873 403.488 28.3388C407.723 29.6417 411.958 32.0847 416.03 35.3421C416.519 35.8307 416.682 36.6449 416.356 37.1335L411.143 45.114C409.84 47.2313 406.908 47.8828 404.791 46.5798C402.185 44.9512 399.904 43.8111 397.787 42.9968C394.692 41.6938 391.597 41.0424 388.665 41.0424C386.385 41.0424 384.267 41.531 382.801 42.5082C381.172 43.4854 380.358 44.9511 380.358 47.0684C380.358 49.0228 381.173 50.4886 382.964 51.4658C384.756 52.443 388.014 53.583 392.737 54.7231C397.787 56.026 402.022 57.4918 405.442 58.7948C408.863 60.0977 411.795 61.7264 413.913 63.3551C416.03 64.9838 417.659 66.9382 418.636 69.0554C419.613 71.1727 420.102 73.7785 420.102 76.7101C420.102 83.7133 417.496 89.4137 412.284 93.4854C406.746 97.8828 399.741 100 390.783 100Z" fill="#043054"/>
<path d="M499.427 49.1857C497.798 44.7883 495.192 40.8795 491.934 37.4593C488.677 34.0391 484.768 31.4332 480.044 29.316C475.32 27.3616 469.945 26.2215 463.918 26.2215C457.891 26.2215 452.516 27.1987 447.792 29.316C443.069 31.2704 438.997 34.0391 435.902 37.4593C432.644 40.8795 430.201 44.7883 428.572 49.1857C426.943 53.5831 426.129 58.3062 426.129 63.1922C426.129 68.0782 426.943 72.8014 428.572 77.1988C430.201 81.759 432.644 85.5049 435.902 88.9251C439.16 92.3453 443.069 94.9512 447.792 96.9056C452.516 98.86 457.891 99.8371 463.918 99.8371C469.945 99.8371 475.32 98.86 480.044 96.9056C484.768 94.9512 488.84 92.1824 492.097 88.9251C495.355 85.5049 497.798 81.5962 499.427 77.1988C501.056 72.8014 501.871 68.0782 501.871 63.1922C502.033 58.3062 501.219 53.746 499.427 49.1857ZM465.71 81.759C465.384 81.759 464.407 81.9218 464.081 81.9218H448.933C447.63 81.9218 447.141 80.456 447.955 79.4788L451.05 76.3844C447.63 72.9642 445.675 68.404 445.675 63.3551C445.675 53.746 453.168 45.7655 462.615 44.9512C462.941 44.9512 463.104 44.9512 463.429 44.9512C463.755 44.9512 463.918 44.9512 464.244 44.9512C464.57 44.9512 464.733 44.9512 465.058 44.9512C465.384 44.9512 465.547 44.9512 465.873 44.9512C475.32 45.7655 482.813 53.746 482.813 63.3551C482.65 72.9642 475.157 80.7818 465.71 81.759Z" fill="#043054"/>
<path d="M534.285 100C526.955 100 521.417 97.7199 517.67 93.1596C513.924 88.5994 512.132 81.9219 512.132 73.1271V29.1531C512.132 28.3387 512.784 27.6873 513.598 27.6873H519.951C527.606 27.6873 533.959 33.8762 533.959 41.6938V68.4039C533.959 72.8013 534.773 76.0586 536.565 78.3387C538.194 80.6189 540.637 81.759 543.895 81.759C546.827 81.759 549.596 80.9446 552.202 79.4788C554.32 78.3387 556.111 76.5473 557.903 73.9414C558.88 72.4756 559.369 70.684 559.369 68.8925V29.1531C559.369 28.3387 560.021 27.6873 560.835 27.6873H567.188C574.843 27.6873 581.196 33.8762 581.196 41.6938V74.43C581.196 76.5473 581.521 78.1759 582.173 78.9902C582.662 79.6417 583.476 80.1303 584.616 80.2931C585.268 80.456 585.757 80.9446 585.757 81.5961V97.557C585.757 98.2085 585.268 98.86 584.616 98.86C582.987 99.1857 581.684 99.3485 580.381 99.5114C578.915 99.6742 577.612 99.6743 576.472 99.6743C568.653 99.6743 564.256 96.5798 563.278 90.5537L562.953 86.1564C559.695 90.8795 555.623 94.2997 550.899 96.5798C545.524 98.8599 540.148 100 534.285 100Z" fill="#043054"/>
<path d="M642.604 44.7883C642.604 45.6026 641.953 46.0912 641.301 46.0912C636.577 46.254 632.342 47.0684 628.433 48.6971C624.198 50.3257 621.103 52.7688 619.312 56.0261V97.2313C619.312 98.0456 618.66 98.697 617.846 98.697H611.493C603.837 98.697 597.485 92.5082 597.485 84.6906V28.9902C597.485 28.1759 598.136 27.5244 598.951 27.5244H608.072C613.285 27.5244 617.357 31.759 617.357 36.8078V41.8567C619.8 37.1336 622.895 33.3876 626.804 30.6189C630.714 27.8501 634.786 26.5472 639.021 26.3844C639.998 26.3844 640.812 26.3844 641.138 26.3844C641.464 26.3844 642.116 26.3843 642.441 26.5472V44.7883H642.604Z" fill="#043054"/>
<path d="M643.907 63.0293C643.907 58.1433 644.722 53.4202 646.513 49.0228C648.305 44.6254 650.748 40.7166 654.006 37.2964C657.264 33.8762 661.173 31.2703 666.06 29.3159C670.783 27.3615 676.159 26.3844 682.185 26.3844C690.33 26.3844 697.334 28.1759 702.872 31.5961C707.921 34.6905 711.831 38.7622 714.6 43.6482C715.088 44.4625 714.6 45.4397 713.785 45.6026L697.497 50.4886C695.868 50.9772 693.913 50.4886 692.773 49.1857C690.167 46.0912 686.583 44.6254 682.185 44.6254C677.625 44.6254 673.878 46.2541 670.946 49.6743C667.851 52.9316 666.386 57.4919 666.386 63.0293C666.386 65.7981 666.711 68.4039 667.689 70.6841C668.503 72.9642 669.643 74.9186 671.109 76.5472C672.575 78.1759 674.204 79.4788 676.159 80.2931C678.113 81.2703 680.068 81.596 682.348 81.596C685.117 81.596 687.561 80.9447 689.841 79.6417C691.144 78.8274 692.284 78.013 693.262 76.873C694.402 75.57 696.357 74.9186 698.148 75.5701L714.437 80.6189C715.251 80.9446 715.74 81.759 715.251 82.5733C712.645 87.4593 708.736 91.368 703.523 94.6254C697.822 98.2084 690.818 99.8371 682.674 99.8371C676.647 99.8371 671.435 98.86 666.711 96.7427C661.988 94.7883 657.915 92.0196 654.658 88.5994C651.4 85.1792 648.794 81.2704 647.165 76.873C644.722 72.6385 643.907 67.9153 643.907 63.0293Z" fill="#043054"/>
<path d="M758.416 100C752.389 100 747.177 99.0228 742.453 97.0684C737.729 95.114 733.657 92.5082 730.399 89.088C727.142 85.8306 724.536 81.9218 722.907 77.5244C721.278 73.127 720.301 68.5668 720.301 63.8437C720.301 58.6319 721.115 53.9088 722.907 49.3485C724.698 44.7882 727.142 40.8795 730.399 37.4593C733.657 34.0391 737.566 31.2703 742.453 29.3159C747.177 27.3615 752.552 26.3844 758.579 26.3844C764.605 26.3844 769.981 27.3615 774.704 29.3159C779.428 31.2703 783.337 34.0391 786.595 37.2964C789.853 40.7166 792.296 44.6254 793.925 49.0228C795.554 53.4202 796.368 58.1433 796.368 63.0293C796.368 64.3323 796.368 65.4723 796.205 66.7752C796.205 67.4267 796.042 68.0782 796.042 68.7297C795.879 69.3811 795.391 69.8697 794.576 69.8697H743.267C743.919 78.3388 748.805 83.2247 758.09 84.3648C758.416 84.3648 758.742 84.3648 759.23 84.3648C762.325 84.3648 765.42 83.5505 768.352 82.0847C770.143 81.1075 771.609 79.9674 772.75 78.5016C773.89 77.0358 775.844 76.2215 777.636 76.7101L790.993 80.4561C791.807 80.6189 792.296 81.7589 791.807 82.4104C789.038 87.2964 784.966 91.3681 779.591 94.4625C773.727 98.2085 766.723 100 758.416 100ZM773.564 56.5147C773.075 51.9544 771.446 48.3713 768.677 45.7655C765.908 43.1596 762.325 41.8567 758.253 41.8567C754.018 41.8567 750.434 43.1596 747.828 45.9283C745.059 48.5342 743.43 52.1173 743.104 56.5147H773.564Z" fill="#043054"/>
<path d="M861.359 100C855.984 100 851.26 98.8599 847.351 96.5798C843.442 94.2997 840.347 91.2052 838.23 87.1336V126.059C838.23 126.873 837.578 127.524 836.764 127.524H830.411C822.755 127.524 816.403 121.336 816.403 113.518V29.1531C816.403 28.3388 817.054 27.6873 817.869 27.6873H826.013C831.225 27.6873 835.298 31.9219 835.298 36.9707V39.088C837.904 35.0163 841.161 31.9219 845.071 29.6417C848.98 27.3616 853.704 26.2215 859.079 26.2215C863.802 26.2215 868.201 27.1987 872.273 28.9902C876.345 30.9446 879.765 33.5505 882.697 36.8078C885.629 40.0652 887.91 43.974 889.539 48.3714C891.167 52.7688 891.982 57.6547 891.982 62.7036C891.982 68.0782 891.167 72.9642 889.701 77.3616C888.235 81.9219 886.118 85.8307 883.349 89.088C880.58 92.3453 877.485 94.9512 873.576 96.9056C869.666 98.86 865.757 100 861.359 100ZM854.029 81.759C856.31 81.759 858.59 81.2704 860.382 80.1303C862.337 79.1531 863.965 77.6873 865.431 76.0587C866.897 74.2672 868.038 72.3127 868.689 70.0326C869.504 67.7525 869.829 65.3094 869.829 62.8664C869.829 60.2606 869.341 57.8176 868.526 55.7004C867.712 53.4202 866.572 51.6287 864.943 50C863.477 48.3714 861.685 47.0684 859.568 46.2541C857.45 45.2769 855.17 44.9512 852.726 44.9512C849.794 44.9512 846.862 45.7655 844.093 47.557C841.324 49.3486 839.207 51.6286 837.741 54.7231V69.3811C839.207 72.9642 841.324 76.0587 844.256 78.5017C847.188 80.9447 850.609 81.759 854.029 81.759Z" fill="#043054"/>
<path d="M972.122 49.1857C970.493 44.7883 967.887 40.8795 964.629 37.4593C961.371 34.0391 957.462 31.4332 952.738 29.316C948.015 27.3616 942.639 26.2215 936.613 26.2215C930.586 26.2215 925.211 27.1987 920.487 29.316C915.763 31.2704 911.691 34.0391 908.596 37.4593C905.339 40.8795 902.895 44.7883 901.267 49.1857C899.638 53.5831 898.823 58.3062 898.823 63.1922C898.823 68.0782 899.638 72.8014 901.267 77.1988C902.895 81.759 905.339 85.5049 908.596 88.9251C911.854 92.3453 915.763 94.9512 920.487 96.9056C925.211 98.86 930.586 99.8371 936.613 99.8371C942.639 99.8371 948.015 98.86 952.738 96.9056C957.462 94.9512 961.534 92.1824 964.792 88.9251C968.049 85.5049 970.493 81.5962 972.122 77.1988C973.75 72.8014 974.565 68.0782 974.565 63.1922C974.728 58.3062 973.913 53.746 972.122 49.1857ZM952.738 79.316C953.553 80.1303 953.064 81.759 951.761 81.759H936.776C934.332 81.759 932.052 81.2704 929.934 80.2932C923.093 77.5244 918.207 71.0098 918.207 63.1922C918.207 53.9088 925.211 46.0912 934.169 44.9512C934.495 44.9512 934.658 44.9512 934.984 44.7883C935.31 44.7883 935.473 44.7883 935.798 44.7883C936.124 44.7883 936.287 44.7883 936.613 44.7883C936.939 44.7883 937.101 44.7883 937.427 44.7883C937.753 44.7883 937.916 44.7883 938.242 44.7883C947.689 45.6026 955.019 53.5831 955.019 63.1922C955.019 67.9153 953.227 72.1499 950.458 75.2443C949.969 75.7329 949.969 76.7102 950.458 77.1988L952.738 79.316Z" fill="#043054"/>
<path d="M986.618 0H997.532C1002.74 0 1006.82 4.23455 1006.82 9.28341V73.4527C1006.82 78.8273 1009.1 81.5961 1013.66 81.5961C1014.8 81.5961 1015.94 81.4332 1017.24 81.1075C1017.89 80.9446 1018.54 80.7818 1019.2 80.4561C1020.01 80.1303 1020.99 80.6189 1021.15 81.4332L1023.43 94.7883C1023.59 95.4398 1023.27 96.0912 1022.62 96.2541C1020.17 97.2313 1017.4 98.2085 1014.31 98.86C1010.73 99.5114 1007.47 100 1004.37 100C998.183 100 993.297 98.3714 990.039 95.1141C986.781 91.8567 984.99 87.1336 984.99 81.1075V1.46579C985.152 0.488589 985.804 0 986.618 0Z" fill="#043054"/>
<path d="M1030.76 17.9153V9.60911C1030.76 4.23452 1035 0 1040.37 0H1050.63C1051.61 0 1052.42 0.814342 1052.42 1.79154V14.9837C1052.42 17.5896 1050.31 19.7069 1047.7 19.7069H1032.39C1031.57 19.544 1030.76 18.7296 1030.76 17.9153ZM1030.76 96.9055V29.316C1030.76 28.3388 1031.57 27.5244 1032.55 27.5244H1042.81C1048.19 27.5244 1052.42 31.7589 1052.42 37.1335V96.9055C1052.42 97.8828 1051.61 98.697 1050.63 98.697H1032.39C1031.57 98.697 1030.76 97.8828 1030.76 96.9055Z" fill="#043054"/>
<path d="M1113.02 93.6482C1113.18 94.2997 1112.85 94.9512 1112.2 95.2769C1109.43 96.417 1106.5 97.3942 1103.08 98.3714C1099.17 99.5115 1095.43 100 1091.52 100C1088.75 100 1086.3 99.6743 1083.86 99.0228C1081.42 98.3714 1079.3 97.2313 1077.51 95.7655C1075.72 94.2997 1074.25 92.3453 1073.27 89.9023C1072.3 87.4593 1071.64 84.5277 1071.64 81.1075V43.974H1063.99C1063.17 43.974 1062.52 43.3225 1062.52 42.5082V28.9902C1062.52 28.1759 1063.17 27.5244 1063.99 27.5244H1071.64V6.35181C1071.64 5.53747 1072.3 4.88602 1073.11 4.88602H1084.02C1089.24 4.88602 1093.31 9.12057 1093.31 14.1694V27.5244H1106.34C1107.15 27.5244 1107.81 28.1759 1107.81 28.9902V34.6906C1107.81 39.9023 1103.57 43.974 1098.52 43.974H1093.31V73.6157C1093.31 75.8958 1093.96 77.6873 1095.1 78.6645C1096.24 79.6417 1097.71 80.2932 1099.5 80.2932C1101.13 80.2932 1102.76 79.9674 1104.55 79.4788C1105.69 79.1531 1106.67 78.8274 1107.48 78.3388C1108.29 78.013 1109.11 78.5017 1109.43 79.316L1113.02 93.6482Z" fill="#043054"/>
<path d="M1121.65 18.2411V9.28341C1121.65 4.07168 1125.89 0 1130.93 0H1141.85C1142.66 0 1143.31 0.651456 1143.31 1.46579V14.9837C1143.31 17.5896 1141.2 19.7069 1138.59 19.7069H1122.95C1122.3 19.544 1121.65 18.8925 1121.65 18.2411ZM1121.65 97.2313V28.9902C1121.65 28.1759 1122.3 27.5244 1123.12 27.5244H1134.03C1139.24 27.5244 1143.31 31.759 1143.31 36.8078V97.0684C1143.31 97.8827 1142.66 98.5342 1141.85 98.5342H1122.95C1122.3 98.6971 1121.65 98.0456 1121.65 97.2313Z" fill="#043054"/>
<path d="M1153.9 63.0293C1153.9 58.1433 1154.72 53.4202 1156.51 49.0228C1158.3 44.6254 1160.74 40.7166 1164 37.2964C1167.26 33.8762 1171.17 31.2703 1176.05 29.3159C1180.78 27.3615 1186.15 26.3844 1192.18 26.3844C1200.32 26.3844 1207.33 28.1759 1212.87 31.5961C1217.92 34.6905 1221.82 38.7622 1224.59 43.6482C1225.08 44.4625 1224.59 45.4397 1223.78 45.6026L1207.49 50.4886C1205.86 50.9772 1203.91 50.4886 1202.77 49.1857C1200.16 46.0912 1196.58 44.6254 1192.18 44.6254C1187.62 44.6254 1183.87 46.2541 1180.94 49.6743C1177.85 52.9316 1176.38 57.4919 1176.38 63.0293C1176.38 65.7981 1176.71 68.4039 1177.68 70.6841C1178.5 72.9642 1179.64 74.9186 1181.1 76.5472C1182.57 78.1759 1184.2 79.4788 1186.15 80.2931C1188.11 81.2703 1190.06 81.596 1192.34 81.596C1195.11 81.596 1197.55 80.9447 1199.84 79.6417C1201.14 78.8274 1202.28 78.013 1203.26 76.873C1204.4 75.57 1206.35 74.9186 1208.14 75.5701L1224.43 80.6189C1225.25 80.9446 1225.73 81.759 1225.25 82.5733C1222.64 87.4593 1218.73 91.368 1213.52 94.6254C1207.82 98.2084 1200.81 99.8371 1192.67 99.8371C1186.64 99.8371 1181.43 98.86 1176.71 96.7427C1171.98 94.7883 1167.91 92.0196 1164.65 88.5994C1161.39 85.1792 1158.79 81.2704 1157.16 76.873C1154.88 72.6385 1153.9 67.9153 1153.9 63.0293Z" fill="#043054"/>
<path d="M1263.2 100C1257.17 100 1251.14 99.0228 1245.28 97.0684C1239.91 95.2769 1235.18 92.6711 1231.27 89.4137C1230.78 88.9251 1230.62 88.2736 1230.95 87.6222L1235.67 79.6418C1236.97 77.3616 1239.91 76.7102 1242.19 78.0131C1245.12 79.8046 1248.05 81.2704 1250.82 82.2476C1254.89 83.8762 1258.8 84.6906 1262.71 84.6906C1265.48 84.6906 1267.6 84.2019 1269.22 83.2247C1270.69 82.2475 1271.51 80.7818 1271.51 78.8274C1271.51 76.873 1270.53 75.4071 1268.57 74.2671C1266.62 73.127 1263.2 71.987 1258.31 70.6841C1253.59 69.3812 1249.52 68.0782 1246.26 66.7753C1243 65.4723 1240.23 64.1694 1238.28 62.5408C1236.16 61.075 1234.69 59.2834 1233.88 57.329C1232.9 55.3746 1232.58 52.9316 1232.58 50.3257C1232.58 46.7427 1233.23 43.4853 1234.69 40.3909C1236.16 37.4593 1238.11 34.8535 1240.72 32.8991C1243.16 30.7818 1246.26 29.1531 1249.68 28.0131C1253.1 26.873 1256.85 26.2215 1260.92 26.2215C1266.29 26.2215 1271.18 26.873 1275.9 28.3388C1280.14 29.6417 1284.37 32.0847 1288.45 35.3421C1288.93 35.8307 1289.1 36.6449 1288.77 37.1335L1283.56 45.114C1282.26 47.2313 1279.32 47.8828 1277.21 46.5798C1274.6 44.9512 1272.32 43.8111 1270.2 42.9968C1267.11 41.6938 1264.01 41.0424 1261.08 41.0424C1258.8 41.0424 1256.68 41.531 1255.22 42.5082C1253.59 43.4854 1252.77 44.9511 1252.77 47.0684C1252.77 49.0228 1253.59 50.4886 1255.38 51.4658C1257.17 52.443 1260.43 53.583 1265.15 54.7231C1270.2 56.026 1274.44 57.4918 1277.86 58.7948C1281.28 60.0977 1284.21 61.7264 1286.33 63.3551C1288.45 64.9838 1290.07 66.9382 1291.05 69.0554C1292.03 71.1727 1292.52 73.7785 1292.52 76.7101C1292.52 83.7133 1289.91 89.4137 1284.7 93.4854C1279.16 97.8828 1272.16 100 1263.2 100Z" fill="#043054"/>
</svg>
